<?xml version="1.0" encoding="UTF-8"?>
<!DOCTYPE svg PUBLIC "-//W3C//DTD SVG 1.1//EN" "http://www.w3.org/Graphics/SVG/1.1/DTD/svg11.dtd">
<!-- Creator: CorelDRAW X6 -->
<svg xmlns="http://www.w3.org/2000/svg" xml:space="preserve" width="100%" height="100%" version="1.1" style="shape-rendering:geometricPrecision; text-rendering:geometricPrecision; image-rendering:optimizeQuality; fill-rule:evenodd; clip-rule:evenodd"
viewBox="0 0 500 500"
 xmlns:xlink="http://www.w3.org/1999/xlink">
 <defs>
  <style type="text/css">
   <![CDATA[
    .fil4 {fill:#D8D8D8}
    .fil2 {fill:#DB2C00}
    .fil3 {fill:#F2F2F2}
    .fil1 {fill:#FF3300}
   ]]>
  </style>
 </defs>
 <g id="Layer_x0020_1">
  <metadata id="CorelCorpID_0Corel-Layer"/>
  <path class="fil1" d="M250 20l0 0 0 460 0 0c-127,0 -230,-103 -230,-230 0,-127 103,-230 230,-230z"/>
  <path class="fil2" d="M250 20l0 0 0 460 0 0c127,0 230,-103 230,-230 0,-127 -103,-230 -230,-230z"/>
  <path class="fil3" d="M250 343c22,0 40,17 40,40 0,22 -18,40 -40,40 -22,0 -40,-18 -40,-40 0,-23 18,-40 40,-40zm6 -27l-12 0c-3,-43 -19,-77 -30,-119 -9,-35 -14,-59 -14,-74 0,-14 5,-25 14,-33 9,-8 21,-12 36,-12 14,0 26,4 36,12 9,8 14,19 14,32 0,13 -5,38 -15,75 -13,45 -24,71 -29,119z"/>
  <path class="fil4" d="M250 78l0 238 6 0c5,-48 16,-74 29,-119 10,-37 15,-62 15,-75 0,-13 -5,-24 -14,-32 -10,-8 -22,-12 -36,-12zm0 265l0 80 0 0c22,0 40,-18 40,-40 0,-23 -18,-40 -40,-40l0 0z"/>
 </g>
</svg>
