<?xml version="1.0" standalone="no"?>
<!DOCTYPE svg PUBLIC "-//W3C//DTD SVG 20010904//EN"
 "http://www.w3.org/TR/2001/REC-SVG-20010904/DTD/svg10.dtd">
<svg version="1.0" xmlns="http://www.w3.org/2000/svg"
 width="16" height="16" viewBox="0 0 728.000000 843.000000"
 preserveAspectRatio="xMidYMid meet">
<metadata>
Created by potrace 1.16, written by Peter Selinger 2001-2019
</metadata>
<g transform="translate(0.000000,843.000000) scale(0.100000,-0.100000)"
fill="#000000" stroke="none">
<path d="M2933 8403 c-81 -55 -220 -174 -291 -252 -320 -346 -471 -754 -447
-1211 22 -436 121 -940 485 -2460 83 -349 133 -565 174 -760 20 -91 40 -185
46 -210 22 -99 69 -402 81 -520 20 -209 -1 -398 -67 -610 -81 -259 -213 -517
-399 -782 l-60 -85 -225 -8 c-272 -9 -850 8 -1170 36 -369 31 -729 89 -962
155 -50 14 -92 23 -94 21 -7 -7 173 -313 262 -447 160 -237 333 -449 558 -679
131 -133 354 -334 395 -356 45 -22 232 -83 336 -109 139 -34 317 -63 468 -77
147 -13 726 -7 927 10 1078 93 1995 390 2760 897 248 164 434 317 660 544 354
354 581 681 742 1064 110 265 154 481 145 731 -12 371 -114 663 -315 905 -241
291 -629 461 -1052 460 -483 -1 -991 -232 -1527 -694 -380 -327 -815 -831
-1126 -1303 -56 -84 -102 -152 -103 -150 -2 1 6 34 17 72 61 222 139 653 171
950 28 267 30 691 4 870 -24 166 -59 330 -111 530 -110 424 -125 488 -149 610
-34 177 -48 323 -48 495 1 168 11 247 52 384 70 234 222 476 415 660 60 57
178 156 187 156 4 0 8 4 8 9 0 5 -52 101 -116 213 -63 112 -135 239 -160 283
-375 670 -381 680 -406 683 -13 2 -41 -9 -65 -25z m2757 -5253 c455 -32 741
-160 841 -375 41 -87 50 -185 21 -230 -26 -42 -147 -132 -267 -200 -102 -58
-388 -195 -406 -195 -5 0 -26 -8 -47 -19 -59 -30 -398 -147 -580 -200 -482
-142 -1022 -252 -1594 -325 -285 -36 -348 -41 -348 -26 0 7 35 81 78 164 329
638 833 1104 1399 1295 185 63 408 105 593 114 142 7 170 6 310 -3z"/>
<path d="M4618 6728 c-30 -46 -63 -97 -74 -115 -10 -18 -73 -116 -139 -218
-172 -267 -235 -367 -235 -370 0 -3 103 -75 385 -270 33 -23 156 -108 274
-189 202 -140 215 -147 228 -130 8 11 48 73 90 139 71 113 135 212 325 504
l81 124 -24 20 c-13 11 -94 67 -179 126 -141 98 -196 136 -385 266 -227 156
-284 195 -288 195 -3 0 -29 -37 -59 -82z"/>
</g>
</svg>
