<svg id="Capa_1" enable-background="new 0 0 512 512" height="16" viewBox="0 0 512 512" width="16" xmlns="http://www.w3.org/2000/svg"><path d="m512 256c0 141.385-114.615 256-256 256-31.128 0-60.959-5.559-88.555-15.736-97.74-36.028-167.445-130.006-167.445-240.264 0-141.385 114.615-256 256-256 139.912 0 253.618 112.243 255.958 251.601.032 1.463.042 2.926.042 4.399z" fill="#ff5607"/><path d="m512 256c0 141.385-114.615 256-256 256-31.128 0-60.959-5.559-88.555-15.736l-71.461-71.461 44.032-295.999 208.666-40.49 163.276 163.286c.032 1.464.042 2.927.042 4.4z" fill="#f1520b"/><path d="m456.637 229.704v103.89c0 67.786-54.938 122.723-122.723 122.723h-155.815c-67.786 0-122.742-54.938-122.742-122.723v-155.815c0-67.786 54.956-122.742 122.742-122.742h86.562c67.786 0 122.723 54.956 122.723 122.742 0 14.335 11.628 25.963 25.963 25.963h17.328c14.353 0 25.962 11.627 25.962 25.962zm-103.87 103.28v-3.85c0-11.876-9.627-21.502-21.502-21.502h-152.556c-11.876 0-21.502 9.627-21.502 21.502v3.85c0 11.876 9.627 21.502 21.502 21.502h152.555c11.876 0 21.503-9.627 21.503-21.502zm-48.895-150.745v-3.85c0-11.876-9.627-21.502-21.502-21.502h-103.661c-11.876 0-21.502 9.627-21.502 21.502v3.85c0 11.876 9.627 21.502 21.502 21.502h103.661c11.875.001 21.502-9.626 21.502-21.502z" fill="#f2f2f2"/></svg>