<?xml version="1.0" encoding="iso-8859-1"?>
<!-- Generator: Adobe Illustrator 19.0.0, SVG Export Plug-In . SVG Version: 6.00 Build 0)  -->
<svg version="1.1" id="Capa_1" xmlns="http://www.w3.org/2000/svg" xmlns:xlink="http://www.w3.org/1999/xlink" x="0px" y="0px"
	 viewBox="0 0 512.004 512.004" height="16" width="16" style="enable-background:new 0 0 512.004 512.004;" xml:space="preserve">
<path style="fill:#B5B5B5;" d="M473.283,149.956l34.765,34.765v312.884H290.767c-19.199,19.199-50.331,19.199-69.53,0H3.957V184.721
	l34.765-34.765L473.283,149.956L473.283,149.956z"/>
<g>
	<rect x="38.721" y="149.956" style="fill:#EBEBEB;" width="217.281" height="312.884"/>
	<rect x="256.002" y="149.956" style="fill:#EBEBEB;" width="217.281" height="312.884"/>
</g>
<rect x="360.297" y="323.746" style="fill:#FFCF6D;" width="78.221" height="69.53"/>
<g>
	<rect x="342.914" y="176.03" style="fill:#6F6F6F;" width="104.295" height="17.382"/>
	<rect x="282.076" y="210.76" style="fill:#6F6F6F;" width="165.133" height="17.382"/>
	<rect x="282.076" y="245.525" style="fill:#6F6F6F;" width="78.221" height="17.382"/>
	<rect x="282.076" y="280.29" style="fill:#6F6F6F;" width="112.986" height="17.382"/>
	<rect x="282.076" y="419.349" style="fill:#6F6F6F;" width="165.133" height="17.382"/>
	<rect x="282.076" y="315.054" style="fill:#6F6F6F;" width="52.147" height="17.382"/>
	<rect x="282.076" y="349.819" style="fill:#6F6F6F;" width="52.147" height="17.382"/>
	<rect x="282.076" y="384.584" style="fill:#6F6F6F;" width="52.147" height="17.382"/>
	<rect x="125.634" y="176.03" style="fill:#6F6F6F;" width="104.295" height="17.382"/>
	<rect x="64.795" y="210.76" style="fill:#6F6F6F;" width="165.133" height="17.382"/>
	<rect x="160.399" y="245.525" style="fill:#6F6F6F;" width="69.53" height="17.382"/>
	<rect x="125.634" y="245.525" style="fill:#6F6F6F;" width="17.382" height="17.382"/>
	<rect x="64.795" y="245.525" style="fill:#6F6F6F;" width="43.456" height="17.382"/>
	<rect x="64.795" y="280.29" style="fill:#6F6F6F;" width="104.295" height="17.382"/>
	<rect x="125.634" y="315.054" style="fill:#6F6F6F;" width="104.295" height="17.382"/>
	<rect x="99.56" y="349.819" style="fill:#6F6F6F;" width="130.368" height="17.382"/>
	<rect x="99.56" y="384.584" style="fill:#6F6F6F;" width="130.368" height="17.382"/>
	<rect x="99.56" y="419.349" style="fill:#6F6F6F;" width="130.368" height="17.382"/>
	<rect x="377.636" y="245.525" style="fill:#6F6F6F;" width="69.53" height="17.382"/>
	<rect x="64.795" y="349.819" style="fill:#6F6F6F;" width="17.382" height="17.382"/>
	<rect x="64.795" y="384.584" style="fill:#6F6F6F;" width="17.382" height="17.382"/>
	<rect x="64.795" y="419.349" style="fill:#6F6F6F;" width="17.382" height="17.382"/>
</g>
<g>
	<path style="fill:#DAEFF6;" d="M157.878,34.797c22.51,0.096,40.684,18.425,40.588,40.936c-0.096,22.51-18.425,40.684-40.936,40.588
		c-22.51-0.096-40.684-18.425-40.588-40.936c0.096-22.38,18.208-40.492,40.588-40.588C157.53,34.797,157.878,34.797,157.878,34.797z
		"/>
	<path style="fill:#DAEFF6;" d="M276.253,34.797c22.389-0.026,40.562,18.113,40.588,40.501
		c0.026,22.389-18.113,40.562-40.501,40.588s-40.562-18.113-40.588-40.501C235.751,52.997,253.873,34.841,276.253,34.797z"/>
</g>
<g>
	<path style="fill:#5B5B5B;" d="M276.253,124.578c-27.195-0.026-49.218-22.084-49.192-49.279s22.084-49.218,49.279-49.192
		c27.195,0.026,49.218,22.084,49.192,49.279C325.506,102.571,303.447,124.595,276.253,124.578z M276.253,43.488
		c-17.591,0.026-31.836,14.306-31.81,31.897c0.026,17.591,14.306,31.836,31.897,31.81c17.556-0.026,31.784-14.254,31.81-31.81
		c0.009-17.608-14.271-31.888-31.879-31.897C276.27,43.488,276.261,43.488,276.253,43.488z"/>
	<path style="fill:#5B5B5B;" d="M157.53,124.578c-27.195,0-49.236-22.041-49.236-49.236s22.041-49.236,49.236-49.236h0.417
		c27.195,0.113,49.14,22.25,49.027,49.444C206.862,102.737,184.725,124.691,157.53,124.578z M157.53,43.488
		c-17.478,0.087-31.584,14.332-31.497,31.81c0.087,17.478,14.332,31.584,31.81,31.497s31.584-14.332,31.497-31.81
		c-0.087-17.356-14.141-31.41-31.497-31.497H157.53z"/>
	<rect x="198.032" y="66.694" style="fill:#5B5B5B;" width="37.72" height="17.382"/>
	<path style="fill:#5B5B5B;" d="M161.268,43.15L150.656,29.4l31.08-23.605c11.264-8.291,26.847-7.301,36.964,2.355
		c5.354,5.293,8.37,12.515,8.361,20.042v8.083h-17.382v-8.083c0-2.877-1.147-5.641-3.19-7.674
		c-3.928-3.702-9.943-4.067-14.288-0.869L161.268,43.15z"/>
	<path style="fill:#5B5B5B;" d="M319.709,63.044L308.41,49.833l51.104-43.717c12.185-9.682,29.915-7.648,39.597,4.537
		c3.963,4.989,6.119,11.168,6.119,17.539v8.083h-17.382v-8.083c0-2.877-1.147-5.641-3.19-7.674
		c-3.928-3.702-9.943-4.067-14.288-0.869L319.709,63.044z"/>
</g>
<g>
</g>
<g>
</g>
<g>
</g>
<g>
</g>
<g>
</g>
<g>
</g>
<g>
</g>
<g>
</g>
<g>
</g>
<g>
</g>
<g>
</g>
<g>
</g>
<g>
</g>
<g>
</g>
<g>
</g>
</svg>
