<svg id="Capa_1" enable-background="new 0 0 512 512" height="16" viewBox="0 0 512 512" width="16" xmlns="http://www.w3.org/2000/svg"><g><g><path d="m213.72 0c-85.184 0-154.239 69.055-154.239 154.238v279.743h168.304l27.879-327.731-27.879-105.605c-4.633-.419-9.323-.645-14.065-.645z" fill="#fed943"/></g><path d="m367.958 154.238c0-80.441-61.583-146.487-140.173-153.593v433.336h140.173z" fill="#fcbe2c"/><g><path d="m112.512 371.488c-62.139 0-112.512 50.373-112.512 112.512v28h94.033l13.674-11.472 16.322 11.472h103.756l41.751-52.357-41.751-88.156h-115.273z" fill="#f75f79"/><path d="m460.733 484c0-62.139-50.373-112.512-112.512-112.512h-120.436v140.512h110.557l14.998-7.718 14.998 7.718h92.395z" fill="#cf3086"/></g><g><g><g><path d="m94.034 472.947h29.996v39.053h-29.996z" fill="#cf3086"/></g><g><path d="m338.342 472.947h29.996v39.053h-29.996z" fill="#9e1961"/></g></g></g><g><path d="m186.747 312.696c-6.901 21.721-13.796 42.138-20.001 58.798 18.844 8.477 40.09 12.191 61.039 11.145l10.044-37.931-10.044-32.012c-13.679 0-27.358 0-41.038 0z" fill="#fab9c0"/><path d="m255.004 312.696c-9.073 0-18.146 0-27.219 0v69.943c16.348-.816 32.515-4.53 47.22-11.145-6.205-16.661-13.1-37.077-20.001-58.798z" fill="#f9a7b0"/></g><g><path d="m174.851 134.653h-61.644v87.716c0 63.436 51.234 114.899 114.579 115.283l21.934-75.514-21.934-107.564c-14.142-12.392-32.654-19.921-52.935-19.921z" fill="#fcced3"/><path d="m227.785 154.575v183.078c.238.001.475.009.713.009h26.722v-122.639c.001-24.106-10.627-45.717-27.435-60.448z" fill="#fab9c0"/></g><path d="m255.004 169.882v199.948c0 43.699 35.425 79.123 79.123 79.123h33.83v-279.071z" fill="#fcbe2c"/><g><g><path d="m466.971 283.996c-8.289 0-15.033 6.743-15.033 15.032s6.744 15.033 15.033 15.033 15.033-6.744 15.033-15.033-6.744-15.032-15.033-15.032z" fill="none"/></g><g><path d="m466.971 136.903c-24.829 0-45.028 20.199-45.028 45.028 0 3.65.447 7.195 1.271 10.595l-57.256 35.596 15.837 25.475 57.812-35.941c7.591 5.828 17.077 9.304 27.365 9.304 24.829 0 45.029-20.2 45.029-45.029s-20.201-45.028-45.03-45.028zm0 60.061c-8.289 0-15.033-6.744-15.033-15.033s6.744-15.032 15.033-15.032 15.033 6.743 15.033 15.032-6.744 15.033-15.033 15.033z" fill="#384e75"/></g></g><path d="m466.971 254c-10.523 0-20.206 3.638-27.881 9.71l-128.107-79.571-15.827 25.481 127.911 79.449c-.727 3.206-1.124 6.537-1.124 9.96 0 24.829 20.2 45.029 45.028 45.029 24.829 0 45.029-20.2 45.029-45.029s-20.2-45.029-45.029-45.029zm0 60.061c-8.289 0-15.033-6.744-15.033-15.033s6.744-15.032 15.033-15.032 15.033 6.743 15.033 15.032-6.744 15.033-15.033 15.033z" fill="#2a3860"/></g></svg>