<svg id="Layer_1" enable-background="new 0 0 256 256" height="16" viewBox="0 0 256 256" width="16" xmlns="http://www.w3.org/2000/svg"><g><g><g><path d="m137.197 71.308h-7.938v-23.347h6.537c2.063 0 3.735-1.672 3.735-3.735v-12.763c0-2.063-1.672-3.735-3.735-3.735h-76.577c-2.063 0-3.735 1.672-3.735 3.735v12.763c0 2.063 1.672 3.735 3.735 3.735h6.537v23.347h-7.938c-5.158 0-9.339 4.181-9.339 9.339v149.107c0 5.158 4.181 9.339 9.339 9.339h79.379c5.157 0 9.339-4.181 9.339-9.339v-149.107c-.001-5.158-4.182-9.339-9.339-9.339z" fill="#e0ebfc"/></g></g><g><g><path d="m137.196 241.093h-79.378c-6.252 0-11.339-5.087-11.339-11.339v-149.108c0-6.252 5.087-11.338 11.339-11.338h5.938v-19.347h-4.537c-3.162 0-5.735-2.572-5.735-5.734v-12.764c0-3.162 2.573-5.734 5.735-5.734h76.577c3.162 0 5.735 2.572 5.735 5.734v12.764c0 3.162-2.573 5.734-5.735 5.734h-4.537v19.348h5.938c6.252 0 11.339 5.086 11.339 11.338v149.107c-.001 6.252-5.088 11.339-11.34 11.339zm-79.378-167.784c-4.047 0-7.339 3.292-7.339 7.338v149.107c0 4.047 3.292 7.339 7.339 7.339h79.378c4.047 0 7.339-3.292 7.339-7.339v-149.108c0-4.046-3.292-7.338-7.339-7.338h-7.938c-1.104 0-2-.896-2-2v-23.347c0-1.104.896-2 2-2h6.537c.957 0 1.735-.778 1.735-1.734v-12.764c0-.956-.778-1.734-1.735-1.734h-76.576c-.957 0-1.735.778-1.735 1.734v12.764c0 .956.778 1.734 1.735 1.734h6.537c1.104 0 2 .896 2 2v23.348c0 1.104-.896 2-2 2z" fill="#3762cc"/></g></g><g><g><path d="m128.535 81.309h-9.276v-11.309c0-1.105-.895-2-2-2h-39.503c-1.105 0-2 .895-2 2v11.309h-9.276c-4.418 0-8 3.582-8 8v139.784h78.056v-139.784c-.001-4.419-3.583-8-8.001-8z" fill="#ffea92"/></g></g><g><g><path d="m116.8 2.843h-38.585c-2.429 0-4.398 1.969-4.398 4.398v44.861c0 2.429 1.969 4.398 4.398 4.398h38.585c2.429 0 4.398-1.969 4.398-4.398v-44.861c0-2.429-1.969-4.398-4.398-4.398z" fill="#eaa97d"/></g></g><g><g><path d="m116.8 58.5h-38.585c-3.528 0-6.398-2.87-6.398-6.398v-44.861c0-3.528 2.87-6.398 6.398-6.398h38.585c3.528 0 6.398 2.87 6.398 6.398v44.86c0 3.529-2.87 6.399-6.398 6.399zm-38.585-53.657c-1.322 0-2.398 1.076-2.398 2.398v44.86c0 1.322 1.076 2.398 2.398 2.398h38.585c1.322 0 2.398-1.076 2.398-2.398v-44.86c0-1.322-1.076-2.398-2.398-2.398z" fill="#3762cc"/></g></g><g><g><path d="m136.535 231.093h-78.056c-1.104 0-2-.896-2-2v-139.784c0-5.514 4.486-10 10-10h7.276v-9.309c0-2.206 1.794-4 4-4h39.503c2.206 0 4 1.794 4 4v9.309h7.276c5.514 0 10 4.486 10 10v139.784c.001 1.104-.894 2-1.999 2zm-76.056-4h74.056v-137.784c0-3.309-2.691-6-6-6h-9.276c-1.104 0-2-.896-2-2v-11.309h-39.503v11.309c0 1.104-.896 2-2 2h-9.276c-3.309 0-6 2.691-6 6v137.784z" fill="#3762cc"/></g></g><g><g><g><path d="m141.611 56.373-16.995 34.521c-4.436 9.011-2.906 19.819 3.858 27.244 9.691 10.638 26.431 10.638 36.122 0 6.764-7.425 8.294-18.233 3.858-27.244l-16.994-34.521c-2.012-4.086-7.837-4.086-9.849 0z" fill="#ffea92"/></g></g><g><g><path d="m146.535 128.115c-7.421 0-14.542-3.146-19.539-8.632-7.368-8.089-9.007-19.657-4.174-29.474l16.995-34.521c1.27-2.578 3.844-4.181 6.718-4.181 2.875 0 5.449 1.603 6.719 4.181l16.994 34.521c4.833 9.816 3.195 21.386-4.173 29.474-4.997 5.487-12.12 8.632-19.54 8.632zm-3.13-70.858-16.995 34.52c-4.101 8.33-2.711 18.147 3.543 25.013 4.24 4.655 10.284 7.325 16.582 7.325 6.297.001 12.342-2.67 16.583-7.325 6.253-6.864 7.644-16.683 3.542-25.013l-16.994-34.521c-.601-1.22-1.771-1.948-3.131-1.948-1.359.001-2.529.729-3.13 1.949z" fill="#3762cc"/></g></g></g><g><g><g><path d="m149.831 163.034c-1.605-2.257-4.961-2.239-6.543.033l-17.423 25.036c-5.682 9.964-3.362 22.547 5.505 29.858 8.807 7.261 21.524 7.261 30.331 0 8.867-7.311 11.187-19.893 5.505-29.857z" fill="#6bdddd"/></g></g><g><g><path d="m146.535 225.4c-1.104 0-2-.896-2-2v-32.5c0-1.104.896-2 2-2s2 .896 2 2v32.5c0 1.105-.895 2-2 2z" fill="#3762cc"/></g></g><g><g><path d="m146.534 213.959c-.436 0-.874-.142-1.241-.433-.866-.687-1.012-1.944-.325-2.81l8.192-10.333c.687-.866 1.946-1.009 2.81-.325.866.687 1.012 1.944.325 2.81l-8.192 10.333c-.395.498-.98.758-1.569.758z" fill="#3762cc"/></g></g><g><g><path d="m146.535 225.394c-5.837 0-11.675-1.963-16.438-5.89-9.633-7.941-12.144-21.564-5.97-32.391.029-.053.062-.104.096-.152l17.422-25.036c1.114-1.602 2.944-2.563 4.895-2.573h.03c1.939 0 3.766.942 4.89 2.523.005.007.01.014.014.02l17.376 25.069c.033.049.064.098.094.149 6.174 10.826 3.663 24.448-5.97 32.391-4.763 3.927-10.601 5.89-16.439 5.89zm-18.975-36.223c-5.151 9.119-3.021 20.565 5.083 27.247 8.05 6.636 19.734 6.638 27.786 0 8.104-6.683 10.234-18.13 5.082-27.249l-17.316-24.983c-.38-.53-.971-.834-1.623-.834-.004 0-.008 0-.011 0-.66.004-1.255.316-1.632.858z" fill="#3762cc"/></g></g></g><g><g><g><path d="m86.494 223.428c-1.785-2.117-.931-5.363 1.665-6.328l28.591-10.625c11.067-3.016 22.673 2.37 27.54 12.78 4.834 10.34 1.661 22.655-7.568 29.372-9.292 6.762-22.055 5.87-30.287-2.118z" fill="#6bdddd"/></g></g><g><g><path d="m145.773 237.299c-.165 0-.333-.021-.5-.063l-31.472-8.109c-1.069-.275-1.713-1.366-1.438-2.436s1.368-1.711 2.436-1.438l31.472 8.109c1.069.275 1.713 1.366 1.438 2.436-.232.902-1.045 1.501-1.936 1.501z" fill="#3762cc"/></g></g><g><g><path d="m122.645 239.8c-.767 0-1.497-.443-1.829-1.188-.448-1.01.007-2.191 1.016-2.641l12.051-5.354c1.012-.448 2.19.006 2.641 1.016.448 1.01-.007 2.191-1.016 2.641l-12.051 5.354c-.266.116-.541.172-.812.172z" fill="#3762cc"/></g></g><g><g><path d="m122.823 255.166c-6.448 0-12.854-2.44-17.78-7.222-.042-.041-.082-.084-.121-.128l-19.942-23.08c-.005-.006-.011-.013-.016-.019-1.257-1.492-1.711-3.509-1.215-5.395s1.884-3.418 3.712-4.098l28.593-10.625c.056-.021.112-.039.17-.055 12.027-3.274 24.59 2.552 29.878 13.863 5.229 11.183 1.778 24.571-8.203 31.835-4.534 3.302-9.819 4.924-15.076 4.924zm-14.932-10.033c7.543 7.265 19.16 8.059 27.654 1.877 8.437-6.14 11.353-17.455 6.934-26.907-4.45-9.517-15.002-14.436-25.118-11.721l-28.506 10.594c-.618.229-1.069.728-1.237 1.365-.167.636-.021 1.288.399 1.792z" fill="#3762cc"/></g></g></g><g><g><g><path d="m206.577 223.428c1.785-2.117.931-5.363-1.665-6.328l-28.591-10.625c-11.067-3.016-22.673 2.37-27.54 12.78-4.834 10.34-1.661 22.655 7.568 29.372 9.292 6.762 22.055 5.87 30.287-2.118z" fill="#6bdddd"/></g></g><g><g><path d="m147.297 237.299c-.891 0-1.703-.599-1.936-1.501-.275-1.069.368-2.16 1.438-2.436l31.472-8.109c1.069-.273 2.16.368 2.436 1.438s-.368 2.16-1.438 2.436l-31.472 8.109c-.167.042-.335.063-.5.063z" fill="#3762cc"/></g></g><g><g><path d="m170.427 239.8c-.271 0-.547-.056-.812-.173l-12.051-5.354c-1.009-.449-1.464-1.631-1.016-2.641.45-1.009 1.631-1.462 2.641-1.016l12.051 5.354c1.009.449 1.464 1.631 1.016 2.641-.332.745-1.063 1.189-1.829 1.189z" fill="#3762cc"/></g></g><g><g><path d="m170.247 255.166c-5.257 0-10.541-1.622-15.075-4.922-9.981-7.264-13.431-20.652-8.202-31.835 5.288-11.311 17.85-17.141 29.878-13.863.058.016.114.034.17.055l28.591 10.625c1.829.68 3.217 2.212 3.714 4.099.496 1.887.041 3.902-1.216 5.394-.006.006-.011.013-.016.019l-19.941 23.08c-.039.044-.079.087-.121.128-4.927 4.779-11.335 7.22-17.782 7.22zm-.141-47.525c-8.2 0-15.885 4.702-19.514 12.462-4.419 9.452-1.503 20.769 6.933 26.907 8.492 6.179 20.108 5.388 27.655-1.877l19.874-23.001c.42-.504.565-1.155.398-1.79-.168-.639-.619-1.137-1.238-1.366l-28.504-10.594c-1.865-.5-3.749-.741-5.604-.741zm36.471 15.788h.01z" fill="#3762cc"/></g></g></g></g></svg>