<svg id="Capa_1" enable-background="new 0 0 512 512" height="16" viewBox="0 0 512 512" width="16" xmlns="http://www.w3.org/2000/svg"><g><path d="m457.594 184.949c1.375-1.353 2.148-3.187 2.148-5.099v-148.945c0-17.068-14.07-30.905-31.425-30.905h-122.12c-1.945 0-3.81.76-5.185 2.112l-22.019 21.654c-2.864 2.816-7.506 2.816-10.37 0l-22.019-21.654c-1.375-1.352-3.24-2.112-5.185-2.112h-195.911l45.508 89.51v170.694c0 1.912.772 3.746 2.148 5.099l19.924 19.594c2.863 2.816 2.863 7.382 0 10.198l-19.924 19.594c-1.375 1.352-2.148 3.187-2.148 5.099v102.702 43.151 1.603c0 24.718 20.374 44.755 45.508 44.755 3 0 5.93-.293 8.768-.839h314.45v-265.545c0-1.912-.773-3.747-2.148-5.099l-23.066-22.685c-2.864-2.816-2.864-7.382 0-10.198z" fill="#f3dcb0"/><g><path d="m136.524 512c3 0 5.93-.293 8.768-.839h-17.536c2.838.545 5.768.839 8.768.839z" fill="#eecb81"/></g><path d="m457.594 184.949c1.375-1.353 2.148-3.187 2.148-5.099v-148.945c0-17.068-14.07-30.905-31.425-30.905h-30.905c17.356 0 31.426 13.837 31.426 30.905v148.945c0 1.912-.773 3.746-2.148 5.099l-23.066 22.685c-2.852 2.805-2.852 7.394 0 10.198l23.066 22.685c1.375 1.352 2.148 3.187 2.148 5.099v143.432c0 6.827-5.535 12.362-12.362 12.362h-249.617c-8.678 0-15.713 6.919-15.713 15.453v29.302c0 19.874 199.504 36.722 277.691 42.562v22.435h30.905v-20.242-89.51-155.795c0-1.912-.773-3.747-2.148-5.099l-23.066-22.685c-2.852-2.804-2.852-7.394 0-10.198z" fill="#eecb81"/><path d="m444.355 511.161c5.559-1.067 10.752-3.131 15.387-5.992v-82.679h-292.903c-8.678 0-15.713 6.918-15.713 15.453v29.302c0 19.382-12.529 35.882-30.055 42.104 4.825 1.713 10.027 2.651 15.453 2.651 3 0 5.93-.293 8.768-.839z" fill="#eecb81"/><path d="m136.524 512h329.968c25.133 0 45.508-20.037 45.508-44.755v-29.302c0-8.534-7.035-15.453-15.713-15.453h-298.542c-8.678 0-15.713 6.918-15.713 15.453v29.302c0 24.718-20.375 44.755-45.508 44.755z" fill="#f3dcb0"/><path d="" fill="#eecb81"/><path d="m91.016 89.51h-75.434c-8.606 0-15.582-6.977-15.582-15.582v-28.798c0-24.925 20.205-45.13 45.13-45.13h.756c24.925 0 45.13 20.205 45.13 45.13z" fill="#eecb81"/><g><path d="m168.649 305.335c-4.268 0-7.726-3.459-7.726-7.726v-123.234c0-5.536 3.63-10.156 9.031-11.495 5.349-1.325 10.872 1.137 13.435 5.986l27.496 52.053c2.439 4.614 1.588 10.194-2.121 13.883l-32.388 32.225v30.581c-.001 4.268-3.459 7.727-7.727 7.727zm7.726-116.661v56.554l19.581-19.483z" fill="#ce9775"/></g><g><path d="m231.499 305.335c-4.268 0-7.726-3.459-7.726-7.726v-123.234c0-5.536 3.63-10.155 9.031-11.495 5.355-1.325 10.873 1.137 13.436 5.986l27.496 52.053c2.439 4.614 1.588 10.194-2.121 13.883l-32.389 32.225v30.581c-.001 4.268-3.459 7.727-7.727 7.727zm7.726-116.662v56.556l19.583-19.483z" fill="#ce9775"/></g><g><path d="m267.375 355.781h-98.726c-4.268 0-7.726-3.459-7.726-7.726s3.459-7.726 7.726-7.726h98.726c4.268 0 7.726 3.459 7.726 7.726s-3.458 7.726-7.726 7.726z" fill="#ce9775"/></g><g><path d="m408.791 305.335h-83.015c-4.268 0-7.726-3.459-7.726-7.726s3.459-7.726 7.726-7.726h83.015c4.268 0 7.726 3.459 7.726 7.726s-3.459 7.726-7.726 7.726z" fill="#ce9775"/></g><g><path d="m408.791 135.355h-83.015c-4.268 0-7.726-3.459-7.726-7.726s3.459-7.726 7.726-7.726h83.015c4.268 0 7.726 3.459 7.726 7.726 0 4.266-3.459 7.726-7.726 7.726z" fill="#ce9775"/></g><g><path d="m267.375 386.686h-98.726c-4.268 0-7.726-3.459-7.726-7.726s3.459-7.726 7.726-7.726h98.726c4.268 0 7.726 3.459 7.726 7.726s-3.458 7.726-7.726 7.726z" fill="#ce9775"/></g><g><path d="m199.33 129.642h-25.488c-7.124 0-12.92-5.796-12.92-12.921v-49.944c0-7.124 5.796-12.921 12.92-12.921h25.488c7.125 0 12.921 5.796 12.921 12.921v49.945c0 7.124-5.796 12.92-12.921 12.92zm-22.955-15.452h20.423v-44.88h-20.423z" fill="#ce9775"/></g><g><path d="m267.375 129.642c-4.268 0-7.726-3.459-7.726-7.726v-60.333c0-4.267 3.459-7.726 7.726-7.726s7.726 3.459 7.726 7.726v60.333c.001 4.267-3.458 7.726-7.726 7.726z" fill="#ce9775"/></g><g><path d="m330.226 253.264c-4.268 0-7.726-3.459-7.726-7.726v-60.333c0-4.267 3.459-7.726 7.726-7.726s7.726 3.459 7.726 7.726v60.333c.001 4.267-3.458 7.726-7.726 7.726z" fill="#ce9775"/></g><g><path d="m361.652 253.264c-4.268 0-7.726-3.459-7.726-7.726v-60.333c0-4.267 3.459-7.726 7.726-7.726s7.726 3.459 7.726 7.726v60.333c0 4.267-3.458 7.726-7.726 7.726z" fill="#ce9775"/></g><g><path d="m393.077 253.264c-4.268 0-7.726-3.459-7.726-7.726v-60.333c0-4.267 3.459-7.726 7.726-7.726s7.726 3.459 7.726 7.726v60.333c.001 4.267-3.458 7.726-7.726 7.726z" fill="#ce9775"/></g><g><path d="m407.366 386.686c-4.268 0-7.726-3.459-7.726-7.726 0-16.473-13.686-29.875-30.508-29.875s-30.508 13.402-30.508 29.875c0 4.268-3.459 7.726-7.726 7.726-4.268 0-7.726-3.459-7.726-7.726 0-24.994 20.618-45.328 45.961-45.328s45.961 20.334 45.961 45.328c-.001 4.267-3.46 7.726-7.728 7.726z" fill="#ce9775"/></g><g><path d="m407.366 106.911c-4.268 0-7.726-3.459-7.726-7.726 0-16.473-13.686-29.875-30.508-29.875s-30.508 13.402-30.508 29.875c0 4.267-3.459 7.726-7.726 7.726-4.268 0-7.726-3.459-7.726-7.726 0-24.994 20.618-45.328 45.961-45.328s45.961 20.334 45.961 45.328c-.001 4.267-3.46 7.726-7.728 7.726z" fill="#ce9775"/></g></g></svg>