<svg id="Capa_1" enable-background="new 0 0 512 512" height="16" viewBox="0 0 512 512" width="16" xmlns="http://www.w3.org/2000/svg"><g><path d="m51.145 24.774h16.516v49.548h-16.516z" fill="#ffd064"/><path d="m67.661 66.065h-8.258c-4.561 0-8.258 3.697-8.258 8.258v421.161c0 4.561 3.697 8.258 8.258 8.258h8.258c4.561 0 8.258-3.697 8.258-8.258v-421.161c0-4.561-3.697-8.258-8.258-8.258z" fill="#ecbd83"/><circle cx="59.403" cy="16.516" fill="#ffe07d" r="16.516"/><path d="m75.919 495.484c-9.122 0-16.516-7.395-16.516-16.516v-412.903h-8.258c-4.561 0-8.258 3.697-8.258 8.258v33.032l6.613 8.145-6.613 8.371v247.741l4.28 8.387-4.28 8.13v115.613c0 4.561 3.697 8.258 8.258 8.258h16.516c4.561 0 8.258-3.697 8.258-8.258z" fill="#e2a975"/><path d="m117.209 123.871h-57.806l-7.403-8.371 7.403-8.145h57.806z" fill="#6f6571"/><path d="m117.209 388.129h-57.806l-6.57-6.796 6.57-9.72h57.806z" fill="#6f6571"/><path d="m42.887 107.355h16.516v16.516h-16.516z" fill="#5d5360"/><path d="m42.887 371.613h16.516v16.516h-16.516z" fill="#5d5360"/><path d="m460.849 99.097h-335.382c-4.561 0-8.258 3.697-8.258 8.258v272.516c0 4.561 3.697 8.258 8.258 8.258h329.783l11.551-8.258-44.043-132.129 45.925-137.776c1.782-5.347-2.198-10.869-7.834-10.869z" fill="#b3e59f"/><path d="m317.04 220.46c-.645 0-1.298-.073-1.952-.234-3.774-.911-6.315-4.29-6.315-8.016 0-.645.073-1.298.234-1.952l2.323-9.613-9.863.758c-4.516.315-8.516-3.056-8.863-7.605-.016-.21-.024-.419-.024-.629 0-4.282 3.29-7.903 7.629-8.234l9.855-.758-3.774-9.153c-.419-1.024-.621-2.097-.621-3.145 0-3.242 1.927-6.323 5.113-7.633 4.202-1.734 9.048.274 10.782 4.488l3.774 9.153 7.532-6.419c3.468-2.952 8.669-2.54 11.645.935 1.323 1.556 1.968 3.46 1.968 5.347 0 2.339-.984 4.661-2.903 6.298l-7.54 6.411 8.427 5.185c2.54 1.556 3.935 4.266 3.935 7.032 0 1.476-.395 2.976-1.226 4.323-2.387 3.887-7.484 5.089-11.355 2.71l-8.435-5.185-2.331 9.621c-.91 3.782-4.289 6.315-8.015 6.315z" fill="#ffe07d"/><path d="m466.801 379.871h-275.269c-36.486 0-66.065-29.578-66.065-66.065v-214.709h-8.258c-4.561 0-8.258 3.697-8.258 8.258v280.774c0 4.561 3.697 8.258 8.258 8.258h343.639c5.637 0 9.617-5.522 7.834-10.869z" fill="#95d6a4"/><path d="m279.15 297.214c-33.777-1.605-61.163-28.99-62.767-62.767-1.535-32.305 20.154-59.779 49.801-67.246 1.175-.296.972-2.038-.24-2.039-.03 0-.06 0-.089 0-19.645 0-37.687 6.859-51.864 18.314-19.213 15.524-26.954 39.489-26.324 66.256 1.03 43.807 32.388 74.237 76.195 75.269 26.773.631 50.742-6.185 66.267-25.404 11.45-14.175 18.306-32.214 18.306-51.854 0-.03 0-.06 0-.089-.001-1.212-1.743-1.416-2.039-.24-7.467 29.646-34.941 51.334-67.246 49.8z" fill="#ffe07d"/><path d="m278.242 317.935c-45.608 0-82.581-36.973-82.581-82.581 0-19.647 6.873-37.703 18.33-51.88-18.732 15.139-30.717 38.307-30.717 64.267 0 45.608 36.973 82.581 82.581 82.581 25.96 0 49.136-11.995 64.274-30.727-14.177 11.459-32.24 18.34-51.887 18.34z" fill="#ffd064"/></g></svg>