<?xml version="1.0" encoding="iso-8859-1"?>
<!-- Generator: Adobe Illustrator 19.0.0, SVG Export Plug-In . SVG Version: 6.00 Build 0)  -->
<svg version="1.1" id="Capa_1" xmlns="http://www.w3.org/2000/svg" xmlns:xlink="http://www.w3.org/1999/xlink" x="0px" y="0px"
	 viewBox="0 0 480 480" height="16" width="16" style="enable-background:new 0 0 480 480;" xml:space="preserve">
<g>
	<path style="fill:#E05346;" d="M40,376h8h72v96h56V352c0-17.672-14.328-32-32-32h-40H72v-72v72h32h40h40h8v-48h-72v-40
		c0-17.672-14.328-32-32-32H64H40c-17.672,0-32,14.328-32,32v112C8,361.672,22.328,376,40,376z"/>
	<circle style="fill:#E05346;" cx="64" cy="144" r="56"/>
</g>
<g>
	<circle style="fill:#6ACCEF;" cx="416" cy="144" r="56"/>
	<path style="fill:#6ACCEF;" d="M304,352v120h56v-96h72h8c17.672,0,32-14.328,32-32V232c0-17.672-14.328-32-32-32h-24h-56h-32
		l-56-56l-32,32l72,72h72v72h-48C318.328,320,304,334.328,304,352z"/>
</g>
<path style="fill:#FCAC37;" d="M320,8H160c-8.84,0-16,7.16-16,16v64c0,8.84,7.16,16,16,16h16v56l56-56h88c8.84,0,16-7.16,16-16V24
	C336,15.16,328.84,8,320,8z"/>
<g>
	<path style="fill:#31324D;" d="M480,144c0-35.288-28.712-64-64-64s-64,28.712-64,64c0,19.12,8.472,36.264,21.808,48h-42.496
		l-53.656-53.656c-3.128-3.128-8.184-3.128-11.312,0l-32,32c-3.128,3.128-3.128,8.184,0,11.312l72,72
		C307.84,255.16,309.872,256,312,256h64v56h-40h-97.056l39.712-59.56l-13.312-8.872L219.72,312H200v-40c0-4.424-3.576-8-8-8h-64v-32
		c0-16.864-10.528-31.256-25.328-37.128C118.024,183.176,128,164.752,128,144c0-35.288-28.712-64-64-64S0,108.712,0,144
		c0,20.752,9.976,39.176,25.328,50.872C10.528,200.744,0,215.136,0,232v112c0,22.056,17.944,40,40,40v96h16v-96h56v88
		c0,4.424,3.576,8,8,8h56c4.424,0,8-3.576,8-8V352c0-9-2.984-17.312-8.016-24H184h8h40v136h-32v16h80v-16h-32V328h56.208
		c-5.08,6.704-8.208,14.96-8.208,24v120c0,4.424,3.576,8,8,8h56c4.424,0,8-3.576,8-8v-88h56v96h16v-96c22.056,0,40-17.944,40-40V232
		c0-16.864-10.528-31.256-25.328-37.128C470.024,183.176,480,164.752,480,144z M368,144c0-26.472,21.528-48,48-48s48,21.528,48,48
		s-21.528,48-48,48S368,170.472,368,144z M16,144c0-26.472,21.528-48,48-48s48,21.528,48,48s-21.528,48-48,48S16,170.472,16,144z
		 M80,312v-64H64v72c0,4.424,3.576,8,8,8h72c13.232,0,24,10.768,24,24v112h-40v-88c0-4.424-3.576-8-8-8H40
		c-13.232,0-24-10.768-24-24V232c0-13.232,10.768-24,24-24h48c13.232,0,24,10.768,24,24v40c0,4.424,3.576,8,8,8h64v32H80z M440,208
		c13.232,0,24,10.768,24,24v112c0,13.232-10.768,24-24,24h-80c-4.424,0-8,3.576-8,8v88h-40V352c0-13.232,10.768-24,24-24h48
		c4.424,0,8-3.576,8-8v-72c0-4.424-3.576-8-8-8h-68.688l-64-64L272,155.312l50.344,50.344C323.84,207.16,325.872,208,328,208H440z"
		/>
	<path style="fill:#31324D;" d="M172.936,167.392c0.992,0.416,2.032,0.608,3.064,0.608c2.08,0,4.128-0.816,5.656-2.344L235.312,112
		H320c13.232,0,24-10.768,24-24V24c0-13.232-10.768-24-24-24H160c-13.232,0-24,10.768-24,24v64c0,13.232,10.768,24,24,24h8v48
		C168,163.232,169.944,166.16,172.936,167.392z M160,96c-4.416,0-8-3.584-8-8V24c0-4.416,3.584-8,8-8h160c4.416,0,8,3.584,8,8v64
		c0,4.416-3.584,8-8,8h-88c-2.128,0-4.16,0.84-5.656,2.344L184,140.688V104c0-4.424-3.576-8-8-8H160z"/>
	<rect x="168" y="32" style="fill:#31324D;" width="48" height="16"/>
	<rect x="168" y="64" style="fill:#31324D;" width="144" height="16"/>
	<rect x="232" y="32" style="fill:#31324D;" width="80" height="16"/>
</g>
<g>
</g>
<g>
</g>
<g>
</g>
<g>
</g>
<g>
</g>
<g>
</g>
<g>
</g>
<g>
</g>
<g>
</g>
<g>
</g>
<g>
</g>
<g>
</g>
<g>
</g>
<g>
</g>
<g>
</g>
</svg>
