<?xml version="1.0" encoding="iso-8859-1"?>
<!-- Generator: Adobe Illustrator 19.0.0, SVG Export Plug-In . SVG Version: 6.00 Build 0)  -->
<svg version="1.1" id="Capa_1" xmlns="http://www.w3.org/2000/svg" xmlns:xlink="http://www.w3.org/1999/xlink" x="0px" y="0px"
	 viewBox="0 0 512 512" height="16" width="16" style="enable-background:new 0 0 512 512;" xml:space="preserve">
<circle style="fill:#87D7F5;" cx="256" cy="256" r="256"/>
<g>
	<path style="fill:#BAEAF7;" d="M204.248,187.278h-17.447h-3.677h-17.823h-13.854c-7.358,0-13.323-5.965-13.323-13.323l0,0
		c0-7.358-5.965-13.323-13.323-13.323H72.824c-7.174,0-13.347,5.513-13.684,12.679c-0.36,7.651,5.736,13.967,13.308,13.967h20.978
		c7.174,0,13.347,5.513,13.684,12.679c0.36,7.651-5.736,13.967-13.308,13.967H43.824c-7.174,0-13.347,5.513-13.684,12.679
		c-0.36,7.651,5.736,13.967,13.308,13.967h126.354c7.358,0,13.323-5.965,13.323-13.323l0,0c0-7.358,5.965-13.323,13.323-13.323
		h8.177l0,0c7.572,0,13.668-6.316,13.308-13.967C217.595,192.791,211.422,187.278,204.248,187.278z"/>
	<path style="fill:#BAEAF7;" d="M346.37,16.427h-26.55c-7.358,0-13.323,5.965-13.323,13.323s5.965,13.323,13.323,13.323h46.702
		c7.358,0,13.323,5.965,13.323,13.323s-5.965,13.323-13.323,13.323H323.37h-66.202c-7.358,0-13.323,5.965-13.323,13.323
		s5.965,13.323,13.323,13.323h66.202h54.626c7.358,0,13.323,5.965,13.323,13.323s-5.965,13.323-13.323,13.323h-5.611
		c-7.358,0-13.323,5.965-13.323,13.323s5.965,13.323,13.323,13.323h116.538C460.963,88.515,409.639,40.305,346.37,16.427z"/>
</g>
<path style="fill:#EBE4DD;" d="M256,245.93h-21.362h-63.294v144.186c4.572,0,163.925,0,169.312,0V245.93H256z"/>
<g>
	<path style="fill:#D8CCBC;" d="M182.072,245.93h-2.707h-8.021v144.186c7.845,0,13.538,0,21.455,0V245.93H182.072z"/>
	<path style="fill:#D8CCBC;" d="M256,245.93h-21.362h-63.294v26.957c18.79,0,150.265,0,169.312,0V245.93H256z"/>
</g>
<g>
	<polygon style="fill:#C6B6A5;" points="192.799,245.93 182.072,245.93 179.365,245.93 171.344,245.93 171.344,272.887 
		192.799,272.887 	"/>
	<path style="fill:#C6B6A5;" d="M157.34,259.319c4.297,0,7.78,3.483,7.78,7.78v23.691c0,4.297-3.483,7.78-7.78,7.78
		s-7.78-3.483-7.78-7.78v-23.691C149.56,262.802,153.043,259.319,157.34,259.319z"/>
</g>
<rect x="92.96" y="206.86" style="fill:#EBE4DD;" width="28.01" height="183.26"/>
<rect x="92.96" y="206.86" style="fill:#D8CCBC;" width="14" height="183.26"/>
<rect x="143.34" y="285" style="fill:#C6B6A5;" width="28.01" height="105.11"/>
<rect x="143.34" y="336.18" style="fill:#BFA993;" width="28.01" height="53.939"/>
<path style="fill:#888889;" d="M171.344,285.002h-28.007c1.156-6.88,6.984-12.115,14.004-12.115S170.187,278.122,171.344,285.002z"
	/>
<path style="fill:#C6B6A5;" d="M106.965,300.818c4.297,0,7.78,3.483,7.78,7.78v23.691c0,4.297-3.483,7.78-7.78,7.78
	s-7.78-3.483-7.78-7.78v-23.691C99.185,304.301,102.668,300.818,106.965,300.818z"/>
<rect x="70.59" y="351.91" style="fill:#D8CCBC;" width="72.74" height="28.906"/>
<rect x="70.59" y="351.91" style="fill:#C6B6A5;" width="28.592" height="28.906"/>
<path style="fill:#888889;" d="M143.336,351.91H70.593c3.003-17.87,18.139-31.467,36.371-31.467S140.333,334.04,143.336,351.91z"/>
<path style="fill:#79797A;" d="M121.261,323.4c-4.397-1.902-9.226-2.956-14.296-2.956c-18.233,0-33.368,13.596-36.371,31.467h28.592
	C101.353,339.009,109.846,328.338,121.261,323.4z"/>
<path style="fill:#D8CCBC;" d="M92.72,264.941h28.363h6.862c1.314,0,2.236,1.296,1.805,2.538l-8.846,25.47h-9.549h-8.908h-9.549
	l-8.703-25.057c-0.501-1.443,0.571-2.95,2.098-2.95L92.72,264.941L92.72,264.941z"/>
<g>
	<path style="fill:#BFA993;" d="M91.405,361.191c4.297,0,7.78,3.483,7.78,7.78v11.845h-15.56v-11.845
		C83.625,364.674,87.108,361.191,91.405,361.191z"/>
	<path style="fill:#BFA993;" d="M122.524,361.191c4.297,0,7.78,3.483,7.78,7.78v11.845h-15.56v-11.845
		C114.745,364.674,118.227,361.191,122.524,361.191z"/>
</g>
<path style="fill:#C6B6A5;" d="M354.66,259.319c-4.297,0-7.78,3.483-7.78,7.78v23.691c0,4.297,3.483,7.78,7.78,7.78
	s7.78-3.483,7.78-7.78v-23.691C362.44,262.802,358.957,259.319,354.66,259.319z"/>
<path style="fill:#79797A;" d="M255.481,138.736c-4.297,0-7.78,3.483-7.78,7.78v23.691c0,4.297,3.483,7.78,7.78,7.78
	c4.297,0,7.78-3.483,7.78-7.78v-23.691C263.261,142.219,259.779,138.736,255.481,138.736z"/>
<path style="fill:#888889;" d="M174.705,245.93h161.552c-6.67-38.586-40.284-67.944-80.776-67.944S181.375,207.344,174.705,245.93z"
	/>
<path style="fill:#79797A;" d="M191.37,245.93h129.26c-5.337-38.586-32.232-67.944-64.63-67.944S196.707,207.344,191.37,245.93z"/>
<path style="fill:#888889;" d="M208.61,245.93h94.779c-3.913-38.586-23.634-67.944-47.39-67.944
	C232.244,177.986,212.524,207.344,208.61,245.93z"/>
<path style="fill:#79797A;" d="M225.219,245.93h60.525c-2.499-38.586-15.092-67.944-30.263-67.944
	C240.311,177.986,227.718,207.344,225.219,245.93z"/>
<g>
	<path style="fill:#888889;" d="M244.514,245.93h22.972c-0.948-38.586-5.728-67.944-11.486-67.944
		C250.242,177.986,245.462,207.344,244.514,245.93z"/>
	<path style="fill:#888889;" d="M256,282.591L256,282.591L256,282.591c-31.709,0.25-57.968,23.313-63.201,53.586
		c24.591,0,96.032,0,126.402,0C313.968,305.904,287.709,282.842,256,282.591z"/>
</g>
<path style="fill:#79797A;" d="M268.151,283.84c-3.934-0.782-7.994-1.216-12.151-1.249c-31.709,0.25-57.968,23.313-63.201,53.585
	h24.302C221.648,309.872,242.073,289.022,268.151,283.84z"/>
<path style="fill:#C6B6A5;" d="M340.892,253.71H170.071c-4.297,0-7.78-3.483-7.78-7.78s3.483-7.78,7.78-7.78h170.822
	c4.297,0,7.78,3.483,7.78,7.78C348.672,250.227,345.189,253.71,340.892,253.71z"/>
<path style="fill:#BFA993;" d="M186.149,245.93c0-4.297,3.482-7.78,7.78-7.78h-23.858c-4.297,0-7.78,3.483-7.78,7.78
	s3.483,7.78,7.78,7.78h23.858C189.631,253.71,186.149,250.227,186.149,245.93z"/>
<rect x="391.03" y="206.86" style="fill:#EBE4DD;" width="28.01" height="183.26"/>
<g>
	<rect x="391.03" y="206.86" style="fill:#D8CCBC;" width="14" height="183.26"/>
	<rect x="92.96" y="206.86" style="fill:#D8CCBC;" width="28.01" height="22.03"/>
</g>
<rect x="92.96" y="206.86" style="fill:#C6B6A5;" width="14" height="22.03"/>
<rect x="391.03" y="206.86" style="fill:#D8CCBC;" width="28.01" height="22.03"/>
<rect x="391.03" y="206.86" style="fill:#C6B6A5;" width="14" height="22.03"/>
<rect x="340.66" y="285" style="fill:#D8CCBC;" width="28.01" height="105.11"/>
<rect x="340.66" y="336.18" style="fill:#C6B6A5;" width="28.01" height="53.939"/>
<path style="fill:#D8CCBC;" d="M192.799,336.177v53.939c40.084,0,86.318,0,126.402,0v-53.939
	C300.545,336.177,212.489,336.177,192.799,336.177z"/>
<path style="fill:#C6B6A5;" d="M192.799,336.177v53.939c8.572,0,15.793,0,24.302,0v-53.939
	C208.679,336.177,201.878,336.177,192.799,336.177z"/>
<path style="fill:#EBE4DD;" d="M475.053,380.816c-12.561,0-426.347,0-438.107,0v7.734c29.917,49.336,76.03,87.758,130.965,107.891
	c9.749,0,166.38,0,176.178,0c54.935-20.132,101.047-58.555,130.964-107.891L475.053,380.816L475.053,380.816z"/>
<g>
	<path style="fill:#D8CCBC;" d="M143.336,380.816H36.946v7.734c25.339,41.785,62.297,75.737,106.39,97.383V380.816z"/>
	<path style="fill:#D8CCBC;" d="M36.946,380.816v7.734c4.01,6.612,8.32,13.021,12.894,19.223c22.066,0,389.885,0,412.32,0
		c4.574-6.202,8.884-12.611,12.894-19.223v-7.734C462.492,380.816,48.707,380.816,36.946,380.816z"/>
</g>
<path style="fill:#C6B6A5;" d="M143.336,380.816H36.946v7.734c4.01,6.612,8.32,13.021,12.894,19.223h93.496V380.816z"/>
<path style="fill:#888889;" d="M340.656,285.002h28.007c-1.156-6.88-6.984-12.115-14.004-12.115S341.813,278.122,340.656,285.002z"
	/>
<path style="fill:#CBD0D1;" d="M241.477,179.179h28.007c-1.156-6.88-6.984-12.115-14.004-12.115S242.634,172.299,241.477,179.179z"
	/>
<path style="fill:#B3BBBC;" d="M263.233,169.445c-2.231-1.498-4.888-2.381-7.752-2.381c-7.02,0-12.847,5.235-14.004,12.115h15.504
	C257.666,175.105,259.996,171.62,263.233,169.445z"/>
<path style="fill:#C6B6A5;" d="M405.035,300.818c-4.297,0-7.78,3.483-7.78,7.78v23.691c0,4.297,3.483,7.78,7.78,7.78
	s7.78-3.483,7.78-7.78v-23.691C412.815,304.301,409.332,300.818,405.035,300.818z"/>
<rect x="368.66" y="351.91" style="fill:#D8CCBC;" width="72.74" height="28.906"/>
<rect x="368.66" y="351.91" style="fill:#C6B6A5;" width="28.592" height="28.906"/>
<path style="fill:#888889;" d="M368.664,351.91h72.743c-3.003-17.87-18.139-31.467-36.372-31.467
	C386.803,320.444,371.667,334.04,368.664,351.91z"/>
<path style="fill:#79797A;" d="M419.331,323.4c-4.397-1.902-9.226-2.956-14.296-2.956c-18.232,0-33.368,13.596-36.371,31.467h28.592
	C399.424,339.009,407.916,328.338,419.331,323.4z"/>
<path style="fill:#D8CCBC;" d="M419.28,264.941h-28.363h-6.862c-1.314,0-2.236,1.296-1.805,2.538l8.846,25.47h9.549h8.908h9.549
	l8.703-25.057c0.501-1.443-0.57-2.95-2.098-2.95L419.28,264.941L419.28,264.941z"/>
<path style="fill:#C6B6A5;" d="M405.388,264.941h-14.471h-6.863c-1.314,0-2.236,1.296-1.805,2.537l8.845,25.47h9.549h8.908h2.877
	l-8.845-25.47C403.152,266.237,404.074,264.941,405.388,264.941z"/>
<g>
	<path style="fill:#BFA993;" d="M420.595,361.191c-4.297,0-7.78,3.483-7.78,7.78v11.845h15.56v-11.845
		C428.375,364.674,424.892,361.191,420.595,361.191z"/>
	<path style="fill:#BFA993;" d="M389.475,361.191c-4.297,0-7.78,3.483-7.78,7.78v11.845h15.56v-11.845
		C397.255,364.674,393.773,361.191,389.475,361.191z"/>
	<path style="fill:#BFA993;" d="M178.514,432.211c-10.657,0-19.294,8.637-19.294,19.294v29.376h38.587v-29.376
		C197.807,440.848,189.171,432.211,178.514,432.211z"/>
</g>
<path style="fill:#AA927D;" d="M188.161,434.813c-2.84-1.645-6.128-2.602-9.647-2.602c-10.657,0-19.294,8.637-19.294,19.294v29.376
	h19.294v-29.376C178.514,444.366,182.399,438.149,188.161,434.813z"/>
<g>
	<path style="fill:#BFA993;" d="M256,347.706c-4.297,0-7.78,3.483-7.78,7.78v25.33h15.56v-25.33
		C263.78,351.189,260.297,347.706,256,347.706z"/>
	<path style="fill:#BFA993;" d="M224.881,347.706c-4.297,0-7.78,3.483-7.78,7.78v25.33h15.56v-25.33
		C232.661,351.189,229.178,347.706,224.881,347.706z"/>
	<path style="fill:#BFA993;" d="M287.119,347.706c-4.297,0-7.78,3.483-7.78,7.78v25.33h15.56v-25.33
		C294.899,351.189,291.416,347.706,287.119,347.706z"/>
</g>
<path style="fill:#EBE4DD;" d="M8.939,323.162c6.309,23.263,15.806,45.213,28.007,65.344V160.871H8.939V323.162z"/>
<g>
	<path style="fill:#D8CCBC;" d="M22.943,361.988V160.871H8.939v162.291C12.576,336.574,17.279,349.546,22.943,361.988z"/>
	<path style="fill:#D8CCBC;" d="M8.756,243.324h28.363h6.862c1.314,0,2.236,1.296,1.805,2.537l-8.846,25.47h-9.549h-8.908H8.935
		l-8.703-25.057c-0.501-1.443,0.57-2.95,2.098-2.95L8.756,243.324L8.756,243.324z"/>
</g>
<g>
	<path style="fill:#C6B6A5;" d="M107.544,264.941H92.72h-6.426c-1.528,0-2.6,1.507-2.098,2.95l8.703,25.057h9.549h8.908h2.793
		l-8.703-25.057C104.945,266.448,106.017,264.941,107.544,264.941z"/>
	<path style="fill:#C6B6A5;" d="M23.58,243.324H8.756H2.33c-1.528,0-2.6,1.507-2.098,2.95l8.703,25.057h9.549h8.908h2.793
		l-8.703-25.057C20.98,244.831,22.052,243.324,23.58,243.324z"/>
</g>
<path style="fill:#D8CCBC;" d="M43.306,352.36h-6.188H18.774c3.921,9.643,8.412,18.992,13.433,28.007h4.733l8.624-24.833
	C46.104,353.981,44.951,352.36,43.306,352.36z"/>
<path style="fill:#EBE4DD;" d="M475.053,388.507c12.202-20.131,21.699-42.08,28.008-65.344V160.871h-28.008V388.507z"/>
<path style="fill:#D8CCBC;" d="M489.057,160.871h-14.004v227.636c5.167-8.525,9.844-17.38,14.004-26.519V160.871z"/>
<path style="fill:#E0E2E2;" d="M164.027,480.881h-30.448c10.982,5.991,22.45,11.205,34.332,15.56c14.814,0,184.761,0,176.178,0
	c11.882-4.355,23.35-9.568,34.332-15.56C350.617,480.881,187.114,480.881,164.027,480.881z"/>
<path style="fill:#CBD0D1;" d="M167.911,496.44C195.377,506.506,225.046,512,256,512c30.953,0,60.623-5.494,88.089-15.56
	C322.284,496.44,190.761,496.44,167.911,496.44z"/>
<path style="fill:#D8CCBC;" d="M503.244,243.324h-28.363h-6.862c-1.314,0-2.236,1.296-1.805,2.537l8.846,25.47h9.548h8.908h9.549
	l8.703-25.057c0.501-1.443-0.57-2.95-2.098-2.95L503.244,243.324L503.244,243.324z"/>
<g>
	<path style="fill:#C6B6A5;" d="M488.339,243.324h-13.458h-6.862c-1.314,0-2.236,1.296-1.805,2.537l8.845,25.47h9.549h8.908h1.864
		l-8.846-25.47C486.103,244.62,487.025,243.324,488.339,243.324z"/>
	<path style="fill:#C6B6A5;" d="M474.882,352.36h-6.188c-1.645,0-2.798,1.622-2.259,3.175l8.624,24.833h4.733
		c5.021-9.015,9.511-18.364,13.432-28.007h-18.342V352.36z"/>
</g>
<path style="fill:#79797A;" d="M106.964,138.736c4.297,0,7.78,3.483,7.78,7.78v1.988v9.768v2.167v9.768v1.988
	c0,4.297-3.483,7.78-7.78,7.78s-7.78-3.483-7.78-7.78v-1.988v-9.768v-2.167v-9.768v-1.988
	C99.185,142.219,102.667,138.736,106.964,138.736z"/>
<path style="fill:#9DA4A5;" d="M86.326,195.141l13.1-37.719h15.077l13.101,37.719c1.042,1.324,1.669,2.99,1.669,4.805
	c0,4.297-3.483,7.78-7.78,7.78H92.437c-4.297,0-7.78-3.483-7.78-7.78C84.657,198.13,85.283,196.464,86.326,195.141z"/>
<g>
	<path style="fill:#888889;" d="M111.25,207.682c-1.873-0.408-3.334-3.715-3.334-7.737c0-1.815,0.3-3.482,0.799-4.805l6.114-36.779
		l-0.326-0.939H99.426l-13.1,37.719c-1.042,1.323-1.669,2.99-1.669,4.805c0,4.297,3.483,7.78,7.78,7.78h18.813V207.682z"/>
	<path style="fill:#888889;" d="M121.493,207.726H92.436c-4.297,0-7.78-3.483-7.78-7.78c0-1.816,0.627-3.482,1.669-4.805l0,0h41.278
		c1.042,1.324,1.669,2.99,1.669,4.805C129.273,204.243,125.79,207.726,121.493,207.726z"/>
</g>
<path style="fill:#79797A;" d="M86.326,195.14L86.326,195.14L86.326,195.14c-1.043,1.324-1.67,2.99-1.67,4.805
	c0,2.954,1.646,5.523,4.071,6.841c1.102,0.599,2.366,0.939,3.709,0.939h18.813v-0.044c-1.873-0.408-3.334-3.715-3.334-7.737
	c0-1.815,0.3-3.481,0.799-4.805H86.326V195.14z"/>
<rect x="475.05" y="160.87" style="fill:#D8CCBC;" width="28.01" height="22.03"/>
<rect x="475.05" y="160.87" style="fill:#C6B6A5;" width="14" height="22.03"/>
<rect x="8.939" y="160.87" style="fill:#D8CCBC;" width="28.01" height="22.03"/>
<rect x="8.939" y="160.87" style="fill:#C6B6A5;" width="14" height="22.03"/>
<path style="fill:#79797A;" d="M489.23,79.096c-4.297,0-7.78,3.483-7.78,7.78v11.756v11.935v11.756c0,4.297,3.483,7.78,7.78,7.78
	s7.78-3.483,7.78-7.78v-11.756V98.632V86.876C497.01,82.579,493.528,79.096,489.23,79.096z"/>
<path style="fill:#9DA4A5;" d="M509.869,148.286l-13.1-37.719h-15.077l-13.101,37.719c-1.042,1.324-1.669,2.99-1.669,4.805
	c0,4.297,3.483,7.78,7.78,7.78h29.056c4.297,0,7.78-3.483,7.78-7.78C511.538,151.275,510.912,149.609,509.869,148.286z"/>
<g>
	<path style="fill:#888889;" d="M489.23,153.091c0-1.816,0.313-3.482,0.834-4.805l6.55-37.719h-14.923l-13.101,37.719
		c-1.042,1.324-1.669,2.99-1.669,4.805c0,4.297,3.483,7.78,7.78,7.78h18.418C490.972,160.871,489.23,157.388,489.23,153.091z"/>
	<path style="fill:#888889;" d="M474.702,160.871h29.056c4.297,0,7.78-3.483,7.78-7.78c0-1.816-0.626-3.482-1.669-4.805l0,0h-41.278
		c-1.042,1.324-1.669,2.99-1.669,4.805C466.922,157.388,470.405,160.871,474.702,160.871z"/>
</g>
<path style="fill:#79797A;" d="M489.23,153.091c0-1.816,0.313-3.482,0.834-4.805H468.59c-1.042,1.324-1.669,2.99-1.669,4.805
	c0,2.954,1.646,5.524,4.071,6.841c0.441,0.24,0.908,0.438,1.395,0.589c0.731,0.228,1.508,0.35,2.314,0.35h18.418
	C490.972,160.871,489.23,157.388,489.23,153.091z"/>
<path style="fill:#BFA993;" d="M100.66,432.211c-8.157,0-15.116,5.068-17.938,12.222c11.491,10.571,23.951,20.103,37.232,28.451
	v-21.379C119.953,440.848,111.316,432.211,100.66,432.211z"/>
<path style="fill:#AA927D;" d="M100.66,451.504c0-7.138,3.885-13.355,9.647-16.692c-10.241-5.931-23.281-1.288-27.585,9.62
	c5.743,5.284,11.729,10.308,17.938,15.054V451.504z"/>
<path style="fill:#BFA993;" d="M256,432.211c-10.657,0-19.294,8.637-19.294,19.294v29.376h38.587v-29.376
	C275.294,440.848,266.657,432.211,256,432.211z"/>
<path style="fill:#AA927D;" d="M265.647,434.813c-2.84-1.645-6.128-2.602-9.647-2.602c-10.657,0-19.294,8.637-19.294,19.294v29.376
	H256v-29.376C256,444.366,259.885,438.149,265.647,434.813z"/>
<path style="fill:#BFA993;" d="M333.486,432.211c-10.657,0-19.294,8.637-19.294,19.294v29.376h38.587v-29.376
	C352.78,440.848,344.143,432.211,333.486,432.211z"/>
<path style="fill:#AA927D;" d="M343.133,434.813c-2.84-1.645-6.128-2.602-9.647-2.602c-10.657,0-19.294,8.637-19.294,19.294v29.376
	h19.294v-29.376C333.486,444.366,337.372,438.149,343.133,434.813z"/>
<path style="fill:#BFA993;" d="M391.679,451.504v21.61c13.313-8.337,25.801-17.867,37.322-28.436
	c-2.759-7.282-9.778-12.468-18.028-12.468C400.316,432.211,391.679,440.848,391.679,451.504z"/>
<path style="fill:#AA927D;" d="M410.973,451.504c0-7.138,3.885-13.355,9.646-16.692c-12.694-7.354-28.94,1.719-28.94,16.692v21.61
	c6.643-4.16,13.08-8.617,19.294-13.352V451.504z"/>
<path style="fill:#79797A;" d="M22.943,79.096c-4.297,0-7.78,3.483-7.78,7.78v11.756v11.935v11.756c0,4.297,3.483,7.78,7.78,7.78
	s7.78-3.483,7.78-7.78v-11.756V98.632V86.876C30.723,82.579,27.24,79.096,22.943,79.096z"/>
<path style="fill:#9DA4A5;" d="M43.582,148.286l-13.1-37.719H15.404l-13.1,37.719c-1.042,1.324-1.669,2.99-1.669,4.805
	c0,4.297,3.483,7.78,7.78,7.78h29.056c4.297,0,7.78-3.483,7.78-7.78C45.251,151.275,44.624,149.609,43.582,148.286z"/>
<g>
	<path style="fill:#888889;" d="M22.943,153.091c0-1.816,0.313-3.482,0.834-4.805l6.55-37.719H15.404l-13.1,37.719
		c-1.042,1.324-1.669,2.99-1.669,4.805c0,4.297,3.483,7.78,7.78,7.78h18.418C24.684,160.871,22.943,157.388,22.943,153.091z"/>
	<path style="fill:#888889;" d="M8.415,160.871h29.056c4.297,0,7.78-3.483,7.78-7.78c0-1.816-0.627-3.482-1.669-4.805l0,0H2.304
		c-1.042,1.324-1.669,2.99-1.669,4.805C0.635,157.388,4.117,160.871,8.415,160.871z"/>
</g>
<g>
	<path style="fill:#79797A;" d="M22.943,153.091c0-1.816,0.313-3.482,0.834-4.805H2.304c-1.042,1.324-1.669,2.99-1.669,4.805
		c0,2.954,1.646,5.524,4.071,6.841c0.441,0.24,0.908,0.438,1.395,0.589c0.731,0.228,1.508,0.35,2.314,0.35h18.418
		C24.684,160.871,22.943,157.388,22.943,153.091z"/>
	<path style="fill:#79797A;" d="M405.036,138.736c4.297,0,7.78,3.483,7.78,7.78v1.988v9.768v2.167v9.768v1.988
		c0,4.297-3.483,7.78-7.78,7.78s-7.78-3.483-7.78-7.78v-1.988v-9.768v-2.167v-9.768v-1.988
		C397.256,142.219,400.738,138.736,405.036,138.736z"/>
</g>
<path style="fill:#9DA4A5;" d="M384.397,195.141l13.1-37.719h15.077l13.101,37.719c1.042,1.324,1.669,2.99,1.669,4.805
	c0,4.297-3.483,7.78-7.78,7.78h-29.056c-4.297,0-7.78-3.483-7.78-7.78C382.728,198.13,383.355,196.464,384.397,195.141z"/>
<g>
	<path style="fill:#888889;" d="M409.321,207.682c-1.873-0.408-3.334-3.715-3.334-7.737c0-1.815,0.3-3.482,0.799-4.805l6.114-36.779
		l-0.326-0.939h-15.077l-13.1,37.719c-1.042,1.323-1.669,2.99-1.669,4.805c0,4.297,3.483,7.78,7.78,7.78h18.813V207.682z"/>
	<path style="fill:#888889;" d="M419.564,207.726h-29.056c-4.297,0-7.78-3.483-7.78-7.78c0-1.816,0.626-3.482,1.669-4.805l0,0
		h41.278c1.042,1.324,1.669,2.99,1.669,4.805C427.344,204.243,423.861,207.726,419.564,207.726z"/>
</g>
<path style="fill:#79797A;" d="M384.397,195.14L384.397,195.14L384.397,195.14c-1.043,1.324-1.669,2.99-1.669,4.805
	c0,2.954,1.646,5.523,4.071,6.841c1.102,0.599,2.365,0.939,3.708,0.939h18.813v-0.044c-1.873-0.408-3.334-3.715-3.334-7.737
	c0-1.815,0.3-3.481,0.799-4.805h-22.388V195.14z"/>
<g>
</g>
<g>
</g>
<g>
</g>
<g>
</g>
<g>
</g>
<g>
</g>
<g>
</g>
<g>
</g>
<g>
</g>
<g>
</g>
<g>
</g>
<g>
</g>
<g>
</g>
<g>
</g>
<g>
</g>
</svg>
