<svg id="Layer_1" enable-background="new 0 0 512.002 512.002" height="16" viewBox="0 0 512.002 512.002" width="16" xmlns="http://www.w3.org/2000/svg"><g><g clip-rule="evenodd" fill-rule="evenodd"><path d="m436.001 10h-335v402.002h315 20.001c11 0 20-9 20-20v-362.002c-.001-10.999-9.001-20-20.001-20z" fill="#b6bccf"/><path d="m101.001 412.002v-402.002c-24.75 0-45 20.25-45 45v402.002c0-24.75 20.25-45 45-45z" fill="#8690af"/><path d="m416 412.002h-315c-24.75 0-45 20.25-45 45s20.25 45 45 45h315z" fill="#fff"/><path d="m416 412.002v90h20.001c11 0 20-9 20-20v-90c0 11-9 20-20 20z" fill="#8690af"/><g fill="#ff9eb1"><path d="m278.501 324.339v-235.022c0-14.902-12.192-27.094-27.094-27.094s-27.094 12.192-27.094 27.094v2.255c-3.975-1.835-8.399-2.86-13.063-2.86-17.235 0-31.207 13.972-31.207 31.207 0 3.613.616 7.081 1.745 10.308-13.888 6.462-23.517 20.538-23.517 36.865 0 12.098 5.288 22.96 13.677 30.405-15.69 7.663-26.499 23.774-26.499 42.411 0 19.799 12.199 36.747 29.49 43.744-.459 2.444-.702 4.965-.702 7.543 0 20.208 14.75 36.969 34.071 40.11 3.237 16.237 17.566 28.473 34.754 28.473 19.571.001 35.439-15.866 35.439-35.439z"/><path d="m278.501 89.317v235.022c0 19.573 15.867 35.441 35.441 35.441 17.188 0 31.517-12.236 34.754-28.473 19.321-3.141 34.071-19.902 34.071-40.11 0-2.578-.243-5.099-.702-7.543 17.29-6.997 29.49-23.944 29.49-43.744 0-18.637-10.809-34.748-26.499-42.411 8.389-7.445 13.677-18.307 13.677-30.405 0-16.327-9.629-30.403-23.517-36.865 1.129-3.227 1.745-6.696 1.745-10.308 0-17.235-13.972-31.207-31.207-31.207-4.665 0-9.089 1.025-13.064 2.86v-2.255c0-14.902-12.192-27.094-27.094-27.094-14.903-.002-27.095 12.19-27.095 27.092z"/></g></g><g><path d="m436.001 0h-335c-30.327 0-55 24.673-55 55v402.002c0 30.327 24.673 55 55 55h335c16.542 0 30-13.458 30-30v-452.002c0-16.542-13.458-30-30-30zm-335 492.002c-19.299 0-35-15.701-35-35s15.701-35 35-35h304.999v70zm345-10c0 5.514-4.486 10-10 10h-10.001v-70h10.001c3.505 0 6.871-.604 10-1.714zm0-90c0 5.514-4.486 10-10 10h-325v-146.004c0-5.522-4.478-10-10-10s-10 4.478-10 10v146.92c-9.377 1.729-17.929 5.84-25 11.688v-359.606c0-15.824 10.56-29.223 25-33.537v144.535c0 5.522 4.478 10 10 10s10-4.478 10-10v-145.998h325c5.514 0 10 4.486 10 10z"/><path d="m400.159 195.275c5.534-8.265 8.573-18.063 8.573-28.182 0-16.836-8.468-32.5-22.115-41.84.228-1.761.343-3.542.343-5.334 0-22.722-18.485-41.207-41.207-41.207-1.526 0-3.039.082-4.535.245-4.494-15.429-18.763-26.735-35.623-26.735-10.68 0-20.319 4.536-27.094 11.784-6.774-7.248-16.414-11.784-27.095-11.784-16.86 0-31.129 11.307-35.623 26.735-1.496-.163-3.009-.245-4.535-.245-22.722 0-41.207 18.485-41.207 41.207 0 1.792.115 3.572.344 5.334-13.649 9.34-22.116 25.003-22.116 41.84 0 10.119 3.039 19.918 8.573 28.182-13.429 10.697-21.395 26.91-21.395 44.634 0 20.824 11.092 39.585 28.814 49.664-.018.541-.026 1.082-.026 1.623 0 22.735 14.816 42.202 36.055 48.515 6.387 17.76 23.432 30.068 42.77 30.068 14.316 0 27.106-6.653 35.441-17.031 8.335 10.378 21.125 17.031 35.44 17.031 19.338 0 36.383-12.309 42.77-30.068 21.238-6.313 36.056-25.779 36.056-48.515 0-.541-.009-1.082-.026-1.623 17.723-10.079 28.814-28.839 28.814-49.664 0-17.723-7.966-33.936-21.396-44.634zm-157.099 154.504c-7.56 0-14.495-3.357-19.208-8.765 1.387-.25 2.768-.536 4.132-.902 5.334-1.429 8.501-6.912 7.071-12.247-1.428-5.333-6.902-8.505-12.247-7.071-4.184 1.121-8.608 1.343-12.886.641-.018-.003-.035-.003-.053-.006-13.067-2.144-22.975-12.233-25.173-24.9 2.614.365 5.258.554 7.925.554 4.996 0 9.975-.655 14.798-1.948 5.335-1.43 8.5-6.913 7.07-12.248-1.43-5.334-6.908-8.5-12.248-7.07-3.136.841-6.372 1.267-9.62 1.267-4.798 0-9.486-.912-13.934-2.71-.035-.014-.07-.023-.105-.036-14.057-5.739-23.135-19.238-23.135-34.428 0-14.294 7.972-27.075 20.808-33.382.025-.012.051-.02.076-.032 2.135-1.041 4.377-1.879 6.666-2.491 5.335-1.428 8.502-6.911 7.074-12.246-1.429-5.335-6.908-8.505-12.246-7.074-1.096.293-2.182.632-3.261.992-4.043-5.301-6.295-11.82-6.295-18.582 0-8.68 3.732-16.834 9.942-22.558 3.326 4.463 7.542 8.245 12.434 11.069 1.575.909 3.294 1.342 4.99 1.342 3.456 0 6.818-1.794 8.67-5.002 2.762-4.783 1.123-10.898-3.66-13.66-4.395-2.537-7.737-6.572-9.414-11.362-.007-.02-.017-.038-.024-.058-.772-2.229-1.166-4.564-1.166-6.945 0-11.693 9.514-21.207 21.207-21.207 3.078 0 6.042.645 8.811 1.912.022.01.043.024.065.034 4.004 1.845 7.285 4.839 9.491 8.657 1.853 3.208 5.213 5.001 8.669 5.001 1.696 0 3.417-.433 4.991-1.342 4.783-2.763 6.421-8.879 3.658-13.661-3.091-5.353-7.285-9.854-12.295-13.302 1.545-7.849 8.473-13.79 16.768-13.79 9.426 0 17.095 7.669 17.095 17.095v36.836c-2.573 2.005-5.712 3.103-9.026 3.103-1.287 0-2.57-.169-3.813-.502-5.338-1.429-10.818 1.737-12.248 7.07-1.43 5.335 1.736 10.818 7.07 12.248 2.931.785 5.955 1.184 8.99 1.184 3.091 0 6.118-.41 9.026-1.188v176.27c.001 14.028-11.412 25.44-25.44 25.44zm135.35-75.438c-.032.012-.064.021-.096.033-4.447 1.797-9.135 2.709-13.933 2.709-3.249 0-6.485-.426-9.621-1.267-5.336-1.43-10.818 1.737-12.248 7.07-1.43 5.335 1.735 10.818 7.07 12.248 4.823 1.293 9.803 1.948 14.799 1.948 2.667 0 5.311-.189 7.925-.554-2.198 12.667-12.108 22.757-25.175 24.9-.017.003-.033.003-.05.006-4.274.7-8.7.479-12.888-.641-5.33-1.429-10.818 1.737-12.246 7.071-1.43 5.335 1.737 10.818 7.071 12.247 1.364.365 2.744.652 4.132.902-4.713 5.408-11.647 8.765-19.208 8.765-14.027 0-25.44-11.412-25.44-25.44v-45.772c3.005-9.288 11.802-15.738 21.599-15.738 1.984 0 3.962.261 5.879.774 5.339 1.431 10.818-1.736 12.248-7.07s-1.735-10.818-7.07-12.248c-3.604-.966-7.325-1.456-11.057-1.456-7.754 0-15.177 2.151-21.599 5.939v-159.45c0-9.426 7.668-17.095 17.094-17.095 8.295 0 15.223 5.941 16.768 13.79-5.01 3.448-9.204 7.949-12.295 13.302-2.763 4.782-1.125 10.898 3.658 13.661 1.575.909 3.295 1.342 4.991 1.342 3.456 0 6.817-1.793 8.669-5.001 2.206-3.818 5.487-6.813 9.491-8.657.022-.01.043-.024.065-.034 2.769-1.268 5.733-1.912 8.811-1.912 11.693 0 21.207 9.514 21.207 21.207 0 2.38-.393 4.713-1.163 6.936-.008.023-.02.045-.028.068-1.675 4.789-5.018 8.824-9.413 11.361-4.782 2.761-6.422 8.877-3.66 13.66 1.852 3.208 5.213 5.002 8.67 5.002 1.695 0 3.415-.433 4.99-1.342 4.891-2.824 9.108-6.606 12.434-11.069 6.21 5.723 9.942 13.878 9.942 22.558 0 6.761-2.252 13.281-6.295 18.582-1.079-.359-2.165-.698-3.261-.992-5.34-1.43-10.818 1.739-12.246 7.074s1.739 10.818 7.074 12.246c2.289.612 4.532 1.45 6.667 2.491.023.011.048.019.072.03 12.839 6.307 20.812 19.089 20.812 33.384-.001 15.193-9.084 28.695-23.146 34.432z"/><path d="m222.192 178.407c-4.783 2.762-6.422 8.878-3.66 13.66 1.691 2.929 2.585 6.265 2.585 9.646 0 8.716-5.88 16.378-14.298 18.634-5.335 1.429-8.501 6.912-7.071 12.247 1.196 4.468 5.237 7.415 9.653 7.415.856 0 1.727-.111 2.594-.344 17.146-4.594 29.122-20.2 29.122-37.952 0-6.888-1.82-13.681-5.265-19.646-2.762-4.783-8.878-6.422-13.66-3.66z"/><path d="m338.782 177.666c-6.43-1.723-10.92-7.575-10.92-14.231 0-2.583.683-5.131 1.974-7.367 2.762-4.782 1.123-10.898-3.66-13.66-4.782-2.762-10.898-1.122-13.66 3.66-3.044 5.272-4.653 11.277-4.653 17.367 0 15.692 10.586 29.488 25.742 33.55.867.232 1.738.344 2.595.344 4.416 0 8.456-2.947 9.653-7.414 1.429-5.336-1.737-10.819-7.071-12.249z"/><path d="m101.001 200.998c-5.522 0-10 4.48-10 10.003s4.478 10 10 10 10-4.478 10-10v-.007c0-5.522-4.478-9.996-10-9.996z"/></g></g></svg>