<svg id="Capa_1" enable-background="new 0 0 512 512" height="16" viewBox="0 0 512 512" width="16" xmlns="http://www.w3.org/2000/svg"><g><path d="m441.541 329.656 68.198-68.198c3.014-3.014 3.014-7.902 0-10.916l-68.198-68.198c-1.448-1.448-2.261-3.411-2.261-5.458v-96.447c0-4.263-3.456-7.719-7.719-7.719h-96.447c-2.047 0-4.01-.813-5.458-2.261l-68.198-68.198c-3.014-3.014-7.902-3.014-10.916 0l-68.198 68.198c-1.448 1.448-3.411 2.261-5.458 2.261h-96.447c-4.263 0-7.719 3.456-7.719 7.719v96.447c0 2.047-.813 4.01-2.261 5.458l-68.198 68.198c-3.014 3.014-3.014 7.902 0 10.916l68.198 68.198c1.448 1.448 2.261 3.411 2.261 5.458v96.447c0 4.263 3.456 7.719 7.719 7.719h96.447c2.047 0 4.01.813 5.458 2.261l68.198 68.198c3.014 3.014 7.902 3.014 10.916 0l68.198-68.198c1.448-1.448 3.411-2.261 5.458-2.261h96.447c4.263 0 7.719-3.456 7.719-7.719v-96.447c0-2.047.813-4.01 2.261-5.458z" fill="#fece85"/><g fill="#fec165"><path d="m314.397 439.276h20.722c-2.05 0-4.017.814-5.459 2.266l-68.202 68.202c-3.018 3.007-7.9 3.007-10.917 0l-4.902-4.903 63.3-63.299c1.452-1.452 3.419-2.266 5.458-2.266z"/><path d="m329.661 70.458c1.442 1.452 3.409 2.266 5.459 2.266h-20.722c-2.039 0-4.006-.814-5.459-2.266l-63.3-63.299 4.902-4.903c3.018-3.007 7.9-3.007 10.917 0z"/><path d="m509.744 261.459-68.202 68.202c-1.452 1.442-2.266 3.409-2.266 5.459v96.443c0 4.264-3.45 7.714-7.714 7.714h-20.712c4.264 0 7.714-3.45 7.714-7.714v-101.132c0-2.05.814-4.017 2.266-5.459l65.215-63.514c3.018-3.018 3.018-7.9 0-10.917l-65.215-62.611c-1.452-1.442-2.266-3.409-2.266-5.459v-102.033c0-4.264-3.45-7.714-7.714-7.714h20.712c4.264 0 7.714 3.45 7.714 7.714v96.443c0 2.05.814 4.017 2.266 5.459l68.202 68.202c3.007 3.017 3.007 7.899 0 10.917z"/></g><path d="m397.907 313.41 55.071-55.071c1.292-1.292 1.292-3.386 0-4.678l-55.071-55.071c-.62-.62-.969-1.462-.969-2.339v-77.881c0-1.827-1.481-3.308-3.308-3.308h-77.882c-.877 0-1.719-.348-2.339-.969l-55.071-55.071c-1.292-1.292-3.386-1.292-4.678 0l-55.071 55.071c-.62.62-1.462.969-2.339.969h-77.882c-1.827 0-3.308 1.481-3.308 3.308v77.882c0 .877-.348 1.719-.969 2.339l-55.071 55.071c-1.292 1.292-1.292 3.386 0 4.678l55.071 55.071c.62.62.969 1.462.969 2.339v77.882c0 1.827 1.481 3.308 3.308 3.308h77.882c.877 0 1.719.348 2.339.969l55.071 55.071c1.292 1.292 3.386 1.292 4.678 0l55.071-55.071c.62-.62 1.462-.969 2.339-.969h77.882c1.827 0 3.308-1.481 3.308-3.308v-77.882c0-.879.349-1.72.969-2.34z" fill="#6ed5a1"/><circle cx="256" cy="256" fill="#b0e7c9" r="151.391"/><path d="m407.389 256c0 83.61-67.78 151.389-151.389 151.389-27.355 0-53.01-7.251-75.154-19.94 17.91 7.457 37.551 11.577 58.16 11.577 83.61 0 151.389-67.78 151.389-151.39 0-56.255-30.692-105.352-76.235-131.45 54.741 22.793 93.229 76.813 93.229 139.814z" fill="#91deb6"/><g><path d="m337.233 339.485h-162.466c-3.184 0-5.766-2.581-5.766-5.766v-36.667h173.997v36.667c0 3.184-2.581 5.766-5.765 5.766z" fill="#fdf6ec"/><path d="m343.001 305.022v28.695c0 3.191-2.587 5.768-5.768 5.768h-19.82c3.181 0 5.768-2.577 5.768-5.768v-28.695z" fill="#fcead0"/><path d="m363.787 256.379c-2.87-14.559-11.7-26.308-23.932-34.44-6.006-3.992-12.587-7.065-19.306-9.658-9.586-3.7-20.998-6.082-31.038-8.291-10.823-2.381-14.289-2.968-19.526-5.91-.01-.006-11.495-5.739-13.985-15.61-2.49 9.871-13.975 15.604-13.985 15.61-5.237 2.943-8.702 3.529-19.526 5.91-10.04 2.209-21.452 4.591-31.038 8.291-6.719 2.593-13.3 5.666-19.306 9.658-12.232 8.131-21.062 19.881-23.932 34.44-2.927 14.848 1.122 30.356 11.859 41.199 1.501 1.515 8.929 7.444 8.929 7.444h86.998s86.873 0 86.998 0c0 0 7.429-5.928 8.929-7.444 10.738-10.842 14.787-26.35 11.861-41.199z" fill="#fece85"/><g fill="#fec165"><path d="m351.93 297.575c-1.506 1.516-8.929 7.452-8.929 7.452h-19.82s7.423-5.936 8.929-7.452c14.252-14.346 20.147-39.627 6.06-56.037-6.703-7.807-14.401-11.993-30.219-16.19 0 0-21.194-5.43-25.18-7.102-5.512-2.312-11.805-4.01-17.109-6.779-6.689-3.492-16.351-9.649-22.42-14.069 3.558-2.577 11.242-8.923 12.758-14.929 2.487 9.87 13.973 15.608 13.983 15.608 5.242 2.943 8.701 3.528 19.523 5.916 10.049 2.21 21.455 4.588 31.038 8.285 6.719 2.596 13.3 5.669 19.305 9.662 12.239 8.126 21.069 19.88 23.933 34.438 2.934 14.846-1.12 30.355-11.852 41.197z"/><path d="m272.958 152.614c-3.58-2.319-8.363-1.296-10.682 2.284-1.142 1.762-3.072 2.814-5.165 2.814-3.388 0-6.144-2.756-6.144-6.144 0-2.976 2.118-5.519 5.035-6.045 4.198-.757 6.987-4.775 6.23-8.974-.757-4.198-4.776-6.982-8.974-6.23-10.28 1.856-17.741 10.791-17.741 21.248 0 8.757 5.249 16.298 12.758 19.683v23.796c0 4.267 3.458 7.724 7.724 7.724s7.724-3.458 7.724-7.724v-22.916c4.678-1.499 8.758-4.574 11.517-8.833 2.321-3.581 1.298-8.364-2.282-10.683z"/></g></g></g></svg>