<svg id="Capa_1" enable-background="new 0 0 512 512" height="16" viewBox="0 0 512 512" width="16" xmlns="http://www.w3.org/2000/svg"><path d="m481 466v31c0 8.399-6.599 15-15 15h-420c-8.401 0-15-6.601-15-15v-31c0-74.401 60.601-136 135-136h180c74.399 0 135 61.599 135 136z" fill="#f2f2f2"/><path d="m481 466v31c0 8.399-6.599 15-15 15h-210v-182h90c74.399 0 135 61.599 135 136z" fill="#e7e7f2"/><path d="m391 195v41.7c0 72.9-36 140.4-96.599 180.899-2.401 1.5-5.402 2.401-8.401 2.401h-60c-2.999 0-6-.901-8.401-2.401-60.599-40.499-96.599-107.999-96.599-180.899v-41.7z" fill="#725d57"/><path d="m391 195v41.7c0 72.9-36 140.4-96.599 180.899-2.401 1.5-5.402 2.401-8.401 2.401h-30v-225z" fill="#53433f"/><path d="m286 315c0 8.399-6.599 15-15 15h-30c-8.401 0-15-6.601-15-15 0-8.401 6.599-15 15-15h30c8.401 0 15 6.599 15 15z" fill="#fed2a4"/><path d="m271 330h-15v-30h15c8.401 0 15 6.599 15 15 0 8.399-6.599 15-15 15z" fill="#ffbd86"/><path d="m421 150c0 21.599-10.8 49.799-25.8 77.1l-139.2.599-140.099.601c-14.7-25.5-24.901-53.401-24.901-78.3 0-82.8 74.099-150 165-150 37.2 0 71.7 11.4 99.3 30.599l-23.101 15.901 58.801 17.7c18.9 24.3 30 53.7 30 85.8z" fill="#f2f2f2"/><path d="m421 150c0 21.599-10.8 49.799-25.8 77.1l-139.2.599v-227.699c37.2 0 71.7 11.4 99.3 30.599l-23.101 15.901 58.801 17.7c18.9 24.3 30 53.7 30 85.8z" fill="#e7e7f2"/><path d="m345.985 90.439c-32.346 0-60.461 5.778-89.985 17.561l19.372 17 20.496 1.522c16.326-3.794 33.118-5.863 50.118-5.863 8.291 0 15-6.757 15-15.11-.001-8.351-6.71-15.11-15.001-15.11z" fill="#cecee6"/><path d="m395.2 227.1c-15.6 28.2-45.9 70.499-73.8 86.1-3.9 2.1-8.699 2.399-13.2.599-4.2-1.8-7.5-5.7-8.699-10.199-5.099-19.801-22.8-33.6-43.5-33.6s-38.401 13.799-43.5 33.6c-1.199 4.499-4.499 8.399-8.699 10.199s-9 1.501-13.2-.599c-27.001-15-58.801-56.4-74.7-84.901 16.8-18.6 48.3-84.3 136.5-119.399 1.199-.3 2.401-.601 3.6-.601 2.1 0 3.9.3 5.7.901 11.7 4.799 23.101 10.8 34.2 17.399 59.999 35.7 81.898 79.801 99.298 100.501z" fill="#fed2a4"/><path d="m395.2 227.1c-15.6 28.2-45.9 70.499-73.8 86.1-3.9 2.1-8.699 2.399-13.2.599-4.2-1.8-7.5-5.7-8.699-10.199-5.099-19.801-22.8-33.6-43.5-33.6v-161.7c2.1 0 3.9.3 5.7.901 11.7 4.799 23.101 10.8 34.2 17.399 60 35.699 81.899 79.8 99.299 100.5z" fill="#ffbd86"/><path d="m391 64.2c-45-7.5-90.901-4.2-135 10.8-8.101 2.699-15.901 5.7-24 9.3-7.5 3.6-16.5 0-19.801-7.8-3.299-7.5.301-16.5 7.801-19.8 11.7-5.101 23.701-9.6 36-13.2 32.401-9.901 66-14.101 99.3-12.902 13.801 9.301 25.799 20.701 35.7 33.602z" fill="#e7e7f2"/><path d="m391 64.2c-45-7.5-90.901-4.2-135 10.8v-31.5c32.401-9.901 66-14.101 99.3-12.902 13.801 9.301 25.799 20.701 35.7 33.602z" fill="#cecee6"/><path d="m316 210h-30c-8.291 0-15-6.709-15-15s6.709-15 15-15h30c8.291 0 15 6.709 15 15s-6.709 15-15 15z" fill="#53433f"/><path d="m226 210h-30c-8.284 0-15-6.716-15-15 0-8.284 6.716-15 15-15h30c8.284 0 15 6.716 15 15 0 8.284-6.716 15-15 15z" fill="#725d57"/></svg>