<?xml version="1.0" encoding="iso-8859-1"?>
<!-- Generator: Adobe Illustrator 17.1.0, SVG Export Plug-In . SVG Version: 6.00 Build 0)  -->
<!DOCTYPE svg PUBLIC "-//W3C//DTD SVG 1.1//EN" "http://www.w3.org/Graphics/SVG/1.1/DTD/svg11.dtd">
<svg version="1.1" id="Capa_1" xmlns="http://www.w3.org/2000/svg" xmlns:xlink="http://www.w3.org/1999/xlink" x="0px" y="0px"
	 viewBox="0 0 380.586 380.586" style="enable-background:new 0 0 380.586 380.586;" xml:space="preserve">
<path d="M376.224,1.906C374.787,0.552,372.798,0,369.359,0c-13.341,0-48.25,7.782-89.743,29.222l-2.039,1.054l-9.042,38.073
	l-8.866-28.099l-5.463,3.372c-19.182,11.842-37.924,25.686-55.707,41.146l-1.322,1.149l-14.05,76.699l-15.194-48.866l-5.875,6.353
	c-30.186,32.636-45.856,73.166-53.687,101.419c-3.987,14.385-6.836,29.05-8.023,41.294c-0.523,5.398-0.66,9.493-0.568,12.625
	l-9.743,9.745c0.532-3.816,0.463-8.829-0.214-12.292l-4.804-24.538c-1.044-5.335-3.824-6.455-5.973-6.455
	c-2.243,0-5.088,1.168-5.91,6.731l-3.762,25.465c-0.567,3.841-0.352,9.818,0.491,13.608l3.211,14.444l-9.558,9.56
	c0.532-3.817,0.464-8.833-0.214-12.297L58.5,274.875c-1.044-5.336-3.824-6.456-5.972-6.456c-2.243,0-5.088,1.168-5.91,6.732
	l-3.762,25.465c-0.567,3.841-0.352,9.818,0.491,13.608l3.212,14.448l-42.582,42.59c-2.534,2.536-2.066,4.957-1.562,6.175
	c0.792,1.912,2.659,3.148,4.754,3.148c1.228,0,2.249-0.426,2.909-0.745l27.428-13.275c1.483-0.717,3.408-2.087,4.578-3.259
	l20.968-21.025l10.739,2.388c2.318,0.516,5.446,0.812,8.583,0.812c1.872,0,3.61-0.111,5.026-0.32l25.465-3.762
	c5.469-0.809,6.679-3.593,6.73-5.787s-1.026-5.032-6.453-6.097l-24.54-4.804c-1.858-0.363-4.27-0.563-6.792-0.563
	c-0.233,0-0.458,0.011-0.689,0.014l8.389-8.412l10.798,2.401c2.318,0.516,5.446,0.812,8.583,0.812c1.872,0,3.609-0.111,5.025-0.32
	l25.466-3.762c5.469-0.809,6.679-3.593,6.73-5.787s-1.026-5.032-6.453-6.097l-24.54-4.804c-1.858-0.363-4.27-0.563-6.792-0.563
	c-0.258,0-0.508,0.011-0.763,0.016l9.081-9.106c14.966-0.549,40.028-4.664,65.829-13.111c25.034-8.196,60.432-23.688,86.897-50.946
	l5.721-5.894l-34.344-10.38l58.878-18.211l0.963-1.222c15.343-19.459,28.858-39.888,40.172-60.719l3.091-5.691l-28.68-7.068
	l36.548-8.982l1.005-2.2c13.606-29.771,19.979-53.934,22.93-68.96c1.96-9.983,2.615-16.923,2.819-20.986
	C378.882,6.105,377.915,3.498,376.224,1.906z"/>
<g>
</g>
<g>
</g>
<g>
</g>
<g>
</g>
<g>
</g>
<g>
</g>
<g>
</g>
<g>
</g>
<g>
</g>
<g>
</g>
<g>
</g>
<g>
</g>
<g>
</g>
<g>
</g>
<g>
</g>
</svg>
