<?xml version="1.0" encoding="iso-8859-1"?>
<!-- Generator: Adobe Illustrator 19.0.0, SVG Export Plug-In . SVG Version: 6.00 Build 0)  -->
<svg version="1.1" id="Capa_1" xmlns="http://www.w3.org/2000/svg" xmlns:xlink="http://www.w3.org/1999/xlink" x="0px" y="0px"
	 viewBox="0 0 512 512" height="16" width="16" style="enable-background:new 0 0 512 512;" xml:space="preserve">
<path style="fill:#FFCEBF;" d="M451,287c0-66-38.401-124.6-97.2-151c4.499-8.401,7.2-17.701,7.2-27.599
	c0-25.801-16.5-49.6-40.8-57.7L301,44.099c-24-7.798-46.5-21.599-64.501-39.598C235.3,2.999,233.5,1.8,231.7,1.199
	C229.9,0.3,228.1,0,226,0h-90c-6.599,0-12.299,4.2-14.099,10.201l-15.601,46.8c-10.501,31.5-7.2,67.299,9.6,96.099
	c19.199,32.699,13.5,75.7-13.5,105.099C75.7,287.3,61,324.8,61,364.1c0,31.199,9,61.199,26.4,86.999l36,54.3
	c2.999,4.2,7.5,6.601,12.599,6.601h180c8.401,0,15-6.601,15-15c0-17.401-3.6-34.2-9.6-49.501C396.4,431.3,451,365.9,451,287z"/>
<path style="fill:#FFBFAB;" d="M321.4,447.499c6,15.3,9.6,32.1,9.6,49.501c0,8.399-6.599,15-15,15h-15V44.099l19.2,6.601
	c24.3,8.101,40.8,31.899,40.8,57.7c0,9.899-2.701,19.199-7.2,27.599c58.799,26.4,97.2,85,97.2,151
	C451,365.9,396.4,431.3,321.4,447.499z"/>
<path style="fill:#FF4B00;" d="M338.2,212c-16.5,0-28.799,7.5-37.2,17.1c-8.401-9.6-20.7-17.1-37.2-17.1
	c-29.399,0-52.2,24.3-52.2,55.499c0,32.401,25.199,54.001,60.3,83.401c5.999,5.099,12.599,10.499,19.199,16.5
	c3.001,2.401,6.301,3.6,9.901,3.6s6.899-1.199,9.901-3.6c6.599-6,13.2-11.4,19.199-16.5c10.501-9,20.101-16.8,28.2-24.6
	c16.501-15.601,32.1-33.9,32.1-58.801C390.399,236.3,367.599,212,338.2,212z"/>
<path style="fill:#E61E14;" d="M390.399,267.499c0,24.901-15.599,43.2-32.1,58.801c-8.099,7.8-17.699,15.601-28.2,24.6
	c-5.999,5.099-12.599,10.499-19.199,16.5c-3.001,2.4-6.3,3.6-9.9,3.6V229.1c8.401-9.6,20.7-17.1,37.2-17.1
	C367.599,212,390.399,236.3,390.399,267.499z"/>
<g>
</g>
<g>
</g>
<g>
</g>
<g>
</g>
<g>
</g>
<g>
</g>
<g>
</g>
<g>
</g>
<g>
</g>
<g>
</g>
<g>
</g>
<g>
</g>
<g>
</g>
<g>
</g>
<g>
</g>
</svg>
