<svg id="Capa_1" enable-background="new 0 0 512 512" height="16" viewBox="0 0 512 512" width="16" xmlns="http://www.w3.org/2000/svg"><g><path d="m441.541 329.657 68.198-68.198c3.014-3.014 3.014-7.902 0-10.916l-68.198-68.198c-1.448-1.448-2.261-3.411-2.261-5.458v-96.448c0-4.263-3.456-7.719-7.719-7.719h-96.447c-2.047 0-4.01-.813-5.458-2.261l-68.198-68.198c-3.014-3.014-7.902-3.014-10.916 0l-68.198 68.198c-1.448 1.448-3.411 2.261-5.458 2.261h-96.447c-4.263 0-7.719 3.456-7.719 7.719v96.447c0 2.047-.813 4.01-2.261 5.458l-68.198 68.198c-3.014 3.014-3.014 7.902 0 10.916l68.198 68.198c1.448 1.448 2.261 3.411 2.261 5.458v96.447c0 4.263 3.456 7.719 7.719 7.719h96.447c2.047 0 4.01.813 5.458 2.261l68.198 68.198c3.014 3.014 7.902 3.014 10.916 0l68.198-68.198c1.448-1.448 3.411-2.261 5.458-2.261h96.447c4.263 0 7.719-3.456 7.719-7.719v-96.447c0-2.047.813-4.01 2.261-5.457z" fill="#fece85"/><path d="m509.744 261.459-68.202 68.202c-1.452 1.442-2.266 3.409-2.266 5.459v96.443c0 4.264-3.45 7.714-7.714 7.714h-20.712c4.264 0 7.714-3.45 7.714-7.714v-101.132c0-2.05.814-4.017 2.266-5.459l65.215-63.514c3.018-3.018 3.018-7.9 0-10.917l-65.215-62.611c-1.452-1.442-2.266-3.409-2.266-5.459v-102.033c0-4.264-3.45-7.714-7.714-7.714h20.712c4.264 0 7.714 3.45 7.714 7.714v96.443c0 2.05.814 4.017 2.266 5.459l68.202 68.202c3.008 3.017 3.008 7.899 0 10.917z" fill="#fec165"/><path d="m397.907 313.41 55.071-55.071c1.292-1.292 1.292-3.386 0-4.678l-55.071-55.071c-.62-.62-.969-1.462-.969-2.339v-77.881c0-1.827-1.481-3.308-3.308-3.308h-77.882c-.877 0-1.719-.348-2.339-.969l-55.071-55.071c-1.292-1.292-3.386-1.292-4.678 0l-55.071 55.071c-.62.62-1.462.969-2.339.969h-77.88c-1.827 0-3.308 1.481-3.308 3.308v77.882c0 .877-.348 1.719-.969 2.339l-55.071 55.071c-1.292 1.292-1.292 3.386 0 4.678l55.071 55.071c.62.62.969 1.462.969 2.339v77.882c0 1.827 1.481 3.308 3.308 3.308h77.882c.877 0 1.719.348 2.339.969l55.071 55.071c1.292 1.292 3.386 1.292 4.678 0l55.071-55.071c.62-.62 1.462-.969 2.339-.969h77.882c1.827 0 3.308-1.481 3.308-3.308v-77.882c-.002-.878.347-1.72.967-2.34z" fill="#6ed5a1"/><circle cx="256" cy="256" fill="#b0e7c9" r="151.392"/><g fill="#6ed5a1"><path d="m337.674 203.429c-4.267 0-7.724 3.458-7.724 7.724v117.253c0 4.266 3.458 7.724 7.724 7.724s7.724-3.458 7.724-7.724v-117.253c.001-4.266-3.457-7.724-7.724-7.724z"/><path d="m301.252 203.429c-4.267 0-7.724 3.458-7.724 7.724v93.803c0 8.671-7.055 15.726-15.726 15.726s-15.726-7.055-15.726-15.726v-35.176c0-4.266-3.459-7.724-7.725-7.724s-7.724 3.458-7.724 7.724v35.176c0 8.671-7.055 15.726-15.727 15.726s-15.726-7.055-15.726-15.726v-45.161c0-7.989-3.547-15.105-9.733-19.525-6.457-4.614-15.098-5.728-23.116-2.98-6.777 2.322-12.028 7.592-14.405 14.457-2.391 6.907-1.541 14.305 2.333 20.297 6.939 10.732 20.297 12.139 29.472 11.65v21.262c0 17.19 13.985 31.175 31.175 31.175 9.343 0 17.732-4.136 23.451-10.667 5.719 6.531 14.108 10.667 23.45 10.667 17.19 0 31.174-13.985 31.174-31.175v-93.803c.001-4.266-3.457-7.724-7.723-7.724zm-101.527 64.755c-5.809.396-13.64-.106-16.498-4.528-1.275-1.972-1.534-4.471-.707-6.858 3.119-8.986 17.205-6.591 17.205 2.997z"/><path d="m225.013 217.493c2.947 2.3 6.36 3.471 9.892 3.471 2.307 0 4.664-.499 6.974-1.509 1.756-.768 3.406-1.803 4.902-3.042 5.206 3.696 12.654 5.208 19.608 3.867 8.061-1.555 12.114-6.177 14.093-9.78 3.6-6.552 3.545-15.684-.149-25.056-1.564-3.968-6.052-5.918-10.019-4.354-3.969 1.564-5.918 6.05-4.354 10.019 1.886 4.784 2.28 9.587.982 11.951-.253.462-.847 1.542-3.48 2.05-2.922.566-6.459-.113-8.047-1.54-.486-.437-.718-.841-.635-1.837.357-4.251-2.801-7.986-7.052-8.343-4.252-.361-7.986 2.801-8.343 7.052-.001.002-.001.004-.001.005-.151 1.761-1.91 4.072-3.694 4.852-.765.334-.935.201-1.17.017-2.068-1.615-1.723-4.471.287-11.706.472-1.697.959-3.453 1.318-5.179.868-4.177-1.814-8.267-5.992-9.135-4.173-.866-8.266 1.814-9.135 5.992-.255 1.227-.654 2.665-1.077 4.188-2.052 7.389-5.487 19.757 5.092 28.017z"/><path d="m244.069 169.862c6.242-.231 14.383-5.764 17.768-8.723 3.211-2.808 3.539-7.688.731-10.899-2.807-3.212-7.688-3.539-10.899-.732-2.775 2.426-6.119 4.232-9.669 5.222-4.109 1.146-6.511 5.406-5.366 9.515 1.197 4.295 4.034 5.743 7.435 5.617z"/></g><path d="m407.39 256c0 83.61-67.78 151.39-151.39 151.39-27.355 0-53.011-7.251-75.154-19.94 17.91 7.457 37.551 11.577 58.16 11.577 83.61 0 151.39-67.78 151.39-151.39 0-56.255-30.692-105.352-76.236-131.45 54.741 22.792 93.23 76.812 93.23 139.813z" fill="#91deb6"/></g></svg>