<svg id="Capa_1" enable-background="new 0 0 511.987 511.987" height="16" viewBox="0 0 511.987 511.987" width="16" xmlns="http://www.w3.org/2000/svg"><g><g><path d="m409.475 184.296c-4.504-2.61-9.976-2.778-14.598-.527l-1.857.993-52.529 24.166-74.267-49.373c-9.976-6.632-21.555-10.628-33.528-11.009-.735-.023-1.472-.035-2.212-.035-29.575 0-55.842 19.879-63.867 48.312l-46.652 157.416h135.997l22.307-67.937 65.63 36.916 33.101-29.99c25.563-23.159 40.192-55.907 40.192-90.399l.032-5.026c.022-5.559-2.925-10.712-7.749-13.507z" fill="#fd7c90"/></g><g><path d="m269.825 511.987h-202.705v-7.884c0-39.105 31.701-71.094 70.805-71.094h210.589c0 43.459-35.23 78.978-78.689 78.978z" fill="#fd9025"/><path d="m348.514 433.009h-169.311c-32.899 0-59.569-26.958-59.569-59.858v-18.913h150.191c43.459.001 78.689 35.312 78.689 78.771z" fill="#fabe2c"/></g><g><path d="m409.475 184.296c-4.504-2.61-9.976-2.778-14.598-.527l-1.857.993-52.529 24.166-62.153-41.32v118.734l65.561 36.876 33.101-29.99c25.563-23.159 40.192-55.906 40.192-90.4l.032-5.025c.022-5.559-2.925-10.712-7.749-13.507z" fill="#e64e64"/></g><g><path d="m417.192 202.828-24.172-18.066 27.681-37 24.166 18.084z" fill="#fdd0a7"/></g><path d="m290.351 125.565c-34.619 0-62.783-28.164-62.783-62.783s28.165-62.782 62.783-62.782 62.783 28.164 62.783 62.783-28.164 62.782-62.783 62.782z" fill="#fdd0a7"/><path d="m353.134 62.783c0-34.619-28.164-62.783-62.783-62.783v125.565c34.619 0 62.783-28.164 62.783-62.782z" fill="#fcbc8a"/></g></svg>