<svg id="Layer_1" enable-background="new 0 0 256 256" height="16" viewBox="0 0 256 256" width="16" xmlns="http://www.w3.org/2000/svg"><g><g><path d="m163.047 155.188h-70.094v-6.517c0-16.182 13.118-29.3 29.3-29.3h11.494c16.182 0 29.3 13.118 29.3 29.3z" fill="#f4efed"/></g><g><path d="m243.15 191.318h-230.3c-4.888 0-8.85-3.962-8.85-8.85v-141.796c0-4.888 3.962-8.85 8.85-8.85h230.3c4.888 0 8.85 3.962 8.85 8.85v141.796c0 4.888-3.962 8.85-8.85 8.85z" fill="#f4efed"/></g><g><path d="m133.747 119.371h-7c16.182 0 29.3 13.118 29.3 29.3v6.517h7v-6.517c0-16.182-13.118-29.3-29.3-29.3z" fill="#d6d1cf"/></g><g><path d="m122.253 119.371h7c-16.182 0-29.3 13.118-29.3 29.3v6.517h-7v-6.517c0-16.182 13.118-29.3 29.3-29.3z" fill="#fff"/></g><g><path d="m243.15 31.822h-10c4.888 0 8.85 3.962 8.85 8.85v141.796c0 4.888-3.962 8.85-8.85 8.85h10c4.888 0 8.85-3.962 8.85-8.85v-141.796c0-4.888-3.962-8.85-8.85-8.85z" fill="#d6d1cf"/></g><g><path d="m12.85 191.318h10c-4.888 0-8.85-3.962-8.85-8.85v-141.796c0-4.888 3.962-8.85 8.85-8.85h-10c-4.888 0-8.85 3.962-8.85 8.85v141.796c0 4.888 3.962 8.85 8.85 8.85z" fill="#fff"/></g><g><path d="m208.901 224.178h-161.802v-11.854c0-4.888 3.962-8.85 8.85-8.85h144.102c4.888 0 8.85 3.962 8.85 8.85z" fill="#526faa"/></g><g><path d="m200.051 203.474h-10c4.888 0 8.85 3.962 8.85 8.85v11.855h10v-11.855c0-4.888-3.962-8.85-8.85-8.85z" fill="#34518c"/></g><g><path d="m55.949 203.474h10c-4.888 0-8.85 3.962-8.85 8.85v11.855h-10v-11.855c0-4.888 3.962-8.85 8.85-8.85z" fill="#708dc8"/></g><g><path d="m80.503 191.318h94.993v12.156h-94.993z" fill="#34518c"/></g><g><path d="m13 69.026c-1.105 0-2-.896-2-2v-12c0-1.104.895-2 2-2 1.104 0 2 .896 2 2v12c0 1.105-.896 2-2 2z" fill="#690589"/></g><g><path d="m208.901 226.178h-161.802c-1.104 0-2-.896-2-2v-11.854c0-5.983 4.867-10.851 10.85-10.851h144.102c5.983 0 10.85 4.867 10.85 10.851v11.854c0 1.104-.896 2-2 2zm-159.802-4h157.802v-9.854c0-3.777-3.073-6.851-6.85-6.851h-144.102c-3.777 0-6.85 3.073-6.85 6.851z" fill="#690589"/></g><g><path d="m175.497 205.474h-94.994c-1.104 0-2-.896-2-2v-12.155c0-1.105.896-2 2-2h94.993c1.104 0 2 .895 2 2v12.155c.001 1.104-.895 2-1.999 2zm-92.994-4h90.993v-8.155h-90.993z" fill="#690589"/></g><g><path d="m243.15 193.318h-230.3c-5.983 0-10.85-4.867-10.85-10.851v-141.795c0-5.982 4.867-10.85 10.85-10.85h230.3c5.983 0 10.85 4.867 10.85 10.85v141.796c0 5.983-4.867 10.85-10.85 10.85zm-230.3-159.496c-3.777 0-6.85 3.072-6.85 6.85v141.796c0 3.777 3.073 6.851 6.85 6.851h230.3c3.777 0 6.85-3.073 6.85-6.851v-141.796c0-3.777-3.073-6.85-6.85-6.85z" fill="#690589"/></g><g><path d="m220.893 176.056h-163.432c-1.966 0-3.561-1.594-3.561-3.561 0-1.967 1.594-3.561 3.561-3.561h163.433c1.967 0 3.561 1.594 3.561 3.561-.001 1.967-1.595 3.561-3.562 3.561z" fill="#f4efed"/></g><g><path d="m220.894 178.056h-163.433c-3.066 0-5.561-2.494-5.561-5.561 0-3.066 2.495-5.561 5.561-5.561h163.433c3.066 0 5.561 2.494 5.561 5.561-.001 3.066-2.496 5.561-5.561 5.561zm-163.433-7.121c-.861 0-1.561.7-1.561 1.561 0 .86.7 1.561 1.561 1.561h163.433c.86 0 1.561-.7 1.561-1.561 0-.86-.7-1.561-1.561-1.561z" fill="#690589"/></g><g><path d="m31.546 172.495v-8.863l7.676 4.432 7.676 4.431-7.676 4.432-7.676 4.432z" fill="#ff4397"/></g><g><path d="m31.546 183.359c-.345 0-.69-.089-1-.268-.619-.357-1-1.018-1-1.732v-17.728c0-.715.381-1.375 1-1.732s1.381-.357 2 0l15.352 8.863c.619.357 1 1.018 1 1.732 0 .715-.381 1.375-1 1.732l-15.352 8.864c-.309.18-.655.269-1 .269zm2-16.263v10.799l9.352-5.399z" fill="#690589"/></g><g><path d="m232.575 78.464v-10.514h-5.818c-.676-3.305-1.981-6.379-3.777-9.099l4.119-4.119-7.434-7.434-4.119 4.119c-2.721-1.796-5.795-3.101-9.099-3.776v-5.818h-10.513v5.818c-3.305.676-6.379 1.98-9.099 3.776l-4.119-4.119-7.434 7.434 4.119 4.119c-1.796 2.721-3.101 5.795-3.777 9.099h-5.818v10.514h5.818c.676 3.305 1.98 6.379 3.777 9.099l-4.119 4.119 7.434 7.435 4.119-4.119c2.721 1.796 5.795 3.101 9.1 3.776v5.818h10.513v-5.818c3.305-.676 6.379-1.98 9.099-3.776l4.119 4.119 7.434-7.435-4.119-4.119c1.796-2.721 3.101-5.795 3.777-9.099zm-27.371 11.284v-14.073h5.873l-4.944-5.787-4.943-5.788-4.944 5.788-4.944 5.787h5.873v14.073c-7.463-1.805-13.008-8.524-13.008-16.541 0-9.401 7.621-17.022 17.022-17.022s17.022 7.621 17.022 17.022c.001 8.018-5.544 14.736-13.007 16.541z" fill="#fcc24c"/></g><g><path d="m206.446 106.592h-10.513c-1.105 0-2-.896-2-2v-4.235c-2.382-.635-4.661-1.581-6.805-2.825l-2.999 3c-.751.749-2.079.75-2.829 0l-7.434-7.436c-.781-.781-.781-2.047.001-2.828l2.999-2.999c-1.245-2.144-2.19-4.422-2.826-6.805h-4.235c-1.104 0-2-.896-2-2v-10.514c0-1.104.896-2 2-2h4.235c.635-2.383 1.581-4.662 2.826-6.806l-2.999-2.999c-.781-.781-.781-2.047 0-2.828l7.434-7.435c.78-.781 2.047-.781 2.828 0l2.999 2.999c2.145-1.244 4.423-2.19 6.805-2.825v-4.234c0-1.104.895-2 2-2h10.513c1.105 0 2 .896 2 2v4.234c2.383.635 4.661 1.581 6.806 2.825l2.999-2.999c.781-.781 2.048-.781 2.828 0l7.434 7.435c.376.375.586.884.586 1.414s-.211 1.039-.586 1.414l-2.999 2.999c1.245 2.145 2.191 4.423 2.826 6.806h4.235c1.104 0 2 .896 2 2v10.514c0 1.104-.896 2-2 2h-4.235c-.635 2.382-1.58 4.66-2.826 6.805l2.999 2.999c.781.78.781 2.047.001 2.828l-7.434 7.436c-.751.749-2.079.75-2.829 0l-3-3c-2.144 1.244-4.422 2.19-6.805 2.825v4.235c0 1.104-.895 2-2 2zm-8.513-4h6.513v-3.818c0-.95.668-1.77 1.599-1.959 2.997-.613 5.823-1.786 8.399-3.486.792-.523 1.844-.417 2.516.255l2.705 2.705 4.606-4.606-2.705-2.705c-.672-.672-.778-1.724-.255-2.516 1.701-2.576 2.874-5.401 3.486-8.397.19-.932 1.009-1.6 1.959-1.6h3.818v-6.515h-3.818c-.95 0-1.769-.668-1.959-1.6-.613-2.997-1.786-5.822-3.486-8.399-.523-.792-.417-1.844.255-2.516l2.705-2.705-4.606-4.606-2.705 2.705c-.671.673-1.724.778-2.516.255-2.576-1.7-5.402-2.873-8.399-3.486-.931-.189-1.599-1.009-1.599-1.959v-3.817h-6.513v3.817c0 .95-.669 1.77-1.599 1.959-2.997.613-5.822 1.786-8.399 3.486-.791.524-1.843.418-2.516-.255l-2.706-2.705-4.605 4.606 2.705 2.705c.672.672.778 1.724.255 2.516-1.7 2.575-2.873 5.4-3.486 8.4-.19.931-1.009 1.599-1.959 1.599h-3.818v6.514h3.818c.95 0 1.769.668 1.959 1.599.613 2.998 1.786 5.823 3.486 8.398.523.792.417 1.844-.255 2.516l-2.705 2.705 4.606 4.606 2.704-2.705c.672-.673 1.725-.779 2.516-.255 2.577 1.7 5.402 2.873 8.399 3.486.931.189 1.599 1.009 1.599 1.959v3.819zm7.272-10.844c-.444 0-.881-.148-1.237-.429-.482-.379-.763-.958-.763-1.571v-14.073c0-1.104.895-2 2-2h1.534l-5.548-6.495-5.549 6.495h1.534c1.104 0 2 .896 2 2v14.073c0 .613-.281 1.192-.763 1.571-.481.379-1.109.516-1.707.373-8.559-2.07-14.537-9.672-14.537-18.485 0-10.489 8.533-19.022 19.022-19.022s19.022 8.533 19.022 19.022c0 8.813-5.978 16.415-14.537 18.485-.157.037-.315.056-.471.056zm2-14.073v9.303c5.41-2.348 9.007-7.693 9.007-13.771 0-8.283-6.739-15.022-15.022-15.022s-15.022 6.739-15.022 15.022c0 6.077 3.597 11.423 9.007 13.771v-9.303h-3.873c-.78 0-1.49-.454-1.816-1.163-.327-.708-.211-1.543.296-2.136l9.888-11.574c.76-.891 2.281-.891 3.041 0l9.887 11.574c.507.593.622 1.428.296 2.136-.327.709-1.036 1.163-1.816 1.163z" fill="#690589"/></g><g><path d="m163.047 157.188h-70.094c-1.104 0-2-.895-2-2v-6.517c0-17.26 14.041-31.301 31.3-31.301h11.494c17.259 0 31.3 14.041 31.3 31.301v6.517c0 1.104-.896 2-2 2zm-68.094-4h66.094v-4.517c0-15.054-12.247-27.301-27.3-27.301h-11.494c-15.053 0-27.3 12.247-27.3 27.301z" fill="#690589"/></g><g><path d="m128 129.486c-4.316 0-7.814-3.498-7.814-7.814v-8.633h15.628v8.633c0 4.316-3.499 7.814-7.814 7.814z" fill="#ff9f70"/></g><g><path d="m128 131.486c-5.412 0-9.814-4.402-9.814-9.813v-8.634c0-1.104.895-2 2-2h15.628c1.104 0 2 .896 2 2v8.634c0 5.411-4.402 9.813-9.814 9.813zm-5.814-16.447v6.634c0 3.205 2.608 5.813 5.814 5.813s5.814-2.608 5.814-5.813v-6.634z" fill="#690589"/></g><g><path d="m128.001 55.317c-14.292 0-25.878 11.586-25.878 25.878v11.88h51.756v-11.88c0-14.293-11.586-25.878-25.878-25.878z" fill="#fcc24c"/></g><g><path d="m153.879 95.074h-51.755c-1.104 0-2-.896-2-2v-11.88c0-15.372 12.506-27.878 27.878-27.878s27.878 12.506 27.878 27.878v11.88c-.001 1.105-.897 2-2.001 2zm-49.756-4h47.755v-9.88c0-13.166-10.711-23.878-23.878-23.878-13.166 0-23.878 10.712-23.878 23.878v9.88z" fill="#690589"/></g><g><path d="m107.79 83.711h-1.444c-3.734 0-6.761 3.027-6.761 6.761s3.027 6.76 6.761 6.76h1.444z" fill="#ffbd8e"/></g><g><path d="m149.695 83.711h-1.444v13.521h1.444c3.734 0 6.76-3.027 6.76-6.76 0-3.734-3.027-6.761-6.76-6.761z" fill="#e18152"/></g><g><path d="m128.02 118.078c-11.173 0-20.23-9.175-20.23-20.493v-14.187c0-11.318 9.057-20.493 20.23-20.493 11.173 0 20.23 9.175 20.23 20.493v14.187c0 11.319-9.057 20.493-20.23 20.493z" fill="#ff9f70"/></g><g><path d="m128.02 62.905c-.778 0-1.544.049-2.299.136 10.09 1.157 17.931 9.827 17.931 20.357v14.187c0 10.53-7.841 19.201-17.931 20.357.755.087 1.521.136 2.299.136 11.173 0 20.23-9.175 20.23-20.493v-14.187c0-11.318-9.057-20.493-20.23-20.493z" fill="#e18152"/></g><g><path d="m128.02 62.905c.778 0 1.544.049 2.299.136-10.09 1.157-17.931 9.827-17.931 20.357v14.187c0 10.53 7.841 19.201 17.931 20.357-.755.087-1.521.136-2.299.136-11.173 0-20.23-9.175-20.23-20.493v-14.187c0-11.318 9.057-20.493 20.23-20.493z" fill="#ffbd8e"/></g><g><path d="m128.02 120.078c-12.258 0-22.23-10.09-22.23-22.492v-14.188c0-12.402 9.973-22.493 22.23-22.493 12.258 0 22.23 10.091 22.23 22.493v14.188c0 12.402-9.972 22.492-22.23 22.492zm0-55.173c-10.052 0-18.23 8.296-18.23 18.493v14.188c0 10.196 8.178 18.492 18.23 18.492s18.23-8.296 18.23-18.492v-14.188c0-10.197-8.178-18.493-18.23-18.493z" fill="#690589"/></g><g><path d="m107.79 99.232h-1.444c-4.831 0-8.761-3.93-8.761-8.761s3.93-8.761 8.761-8.761h1.444c1.104 0 2 .896 2 2v13.521c0 1.106-.896 2.001-2 2.001zm-2-13.489c-2.364.276-4.205 2.292-4.205 4.729s1.84 4.452 4.205 4.729z" fill="#690589"/></g><g><path d="m149.695 99.232h-1.444c-1.104 0-2-.896-2-2v-13.521c0-1.104.896-2 2-2h1.444c4.831 0 8.76 3.93 8.76 8.761s-3.93 8.76-8.76 8.76zm.555-13.489v9.457c2.364-.276 4.205-2.291 4.205-4.729s-1.841-4.451-4.205-4.728z" fill="#690589"/></g></g></svg>