<svg id="Capa_1" enable-background="new 0 0 512 512" height="16" viewBox="0 0 512 512" width="16" xmlns="http://www.w3.org/2000/svg"><g><path d="m210.287 405.667v91.333h45.713l20-48-20-43.333z" fill="#b4d2d7"/><path d="m256 405.667h45.713v91.333h-45.713z" fill="#9bb9c3"/><path d="m0 0v354.19l256 20 30-197.095-30-177.095z" fill="#07485e"/><path d="m512 0h-256v374.19l256-20z" fill="#04303e"/><path d="m0 354.19v61.867h256l20-36.057-20-25.81z" fill="#e1ebf0"/><path d="m256 354.19h256v61.867h-256z" fill="#b4d2d7"/><g><path d="m457.633 307.323h-76.867v-30h46.867v-46.868h30z" fill="#ffb655"/></g><g><path d="m457.633 123.734h-30v-46.867h-46.867v-30h76.867z" fill="#ffb655"/></g><g><path d="m84.367 123.734h-30v-76.867h76.867v30h-46.867z" fill="#ffe477"/></g><g><path d="m131.234 307.323h-76.867v-76.868h30v46.868h46.867z" fill="#ffe477"/></g><g><path d="m256 512h-124.766v-30h124.766l10 15z" fill="#e1ebf0"/></g><g><path d="m256 482h124.766v30h-124.766z" fill="#b4d2d7"/></g><g><path d="m185.388 110.275h-.793v133.639h.793l70.612-32.829 10-38.752-10-29.229z" fill="#ffe477"/><path d="m327.405 176.302-71.405-33.198v67.981l71.405-33.197z" fill="#ffb655"/></g></g></svg>