<svg id="svg" version="1.1" xmlns="http://www.w3.org/2000/svg" xmlns:xlink="http://www.w3.org/1999/xlink" width="400" height="400" viewBox="0, 0, 400,400"><g id="svgg"><path id="path0" d="M58.496 58.497 L -0.000 116.993 0.000 200.001 L 0.000 283.009 58.497 341.504 L 116.993 400.000 200.001 400.000 L 283.009 400.000 341.504 341.503 L 400.000 283.007 400.000 199.999 L 400.000 116.991 341.503 58.496 L 283.007 0.000 199.999 0.000 L 116.991 0.000 58.496 58.497 M337.011 62.988 L 393.750 119.726 393.750 200.000 L 393.750 280.274 337.011 337.012 L 280.272 393.750 200.000 393.750 L 119.728 393.750 62.989 337.012 L 6.250 280.274 6.250 200.001 L 6.250 119.728 62.988 62.989 L 119.726 6.250 199.999 6.250 L 280.272 6.250 337.011 62.988 " stroke="none" fill="#040404" fill-rule="evenodd"></path><path id="path1" d="M96.581 96.581 L 79.297 113.866 122.363 156.933 L 165.428 200.000 122.363 243.067 L 79.297 286.134 96.581 303.419 L 113.866 320.703 156.933 277.637 L 200.000 234.572 243.067 277.637 L 286.134 320.703 303.419 303.419 L 320.703 286.134 277.637 243.067 L 234.572 200.000 277.637 156.933 L 320.703 113.866 303.419 96.581 L 286.134 79.297 243.067 122.363 L 200.000 165.428 156.933 122.363 L 113.866 79.297 96.581 96.581 " stroke="none" fill="#fbfbfb" fill-rule="evenodd"></path><path id="path2" d="M380.469 125.051 C 373.271 128.027,366.284 130.922,364.941 131.486 L 362.500 132.510 362.500 199.947 L 362.500 267.384 314.941 314.941 L 267.383 362.498 199.882 362.597 L 132.380 362.695 125.986 378.125 L 119.593 393.555 199.932 393.653 L 280.271 393.752 337.012 337.012 L 393.752 280.271 393.653 199.956 L 393.555 119.640 380.469 125.051 " stroke="none" fill="#790404" fill-rule="evenodd"></path><path id="path3" d="M279.183 8.219 C 278.674 9.392,275.732 16.460,272.645 23.926 L 267.033 37.500 199.824 37.500 L 132.616 37.500 85.058 85.059 L 37.500 132.618 37.500 199.847 L 37.500 267.076 22.168 273.421 C 13.735 276.911,6.708 279.885,6.552 280.030 C 6.397 280.175,31.746 305.770,62.884 336.908 C 94.022 368.045,119.565 393.441,119.645 393.343 C 119.724 393.245,122.623 386.309,126.086 377.930 L 132.382 362.695 199.882 362.597 L 267.383 362.498 314.941 314.941 L 362.500 267.384 362.500 199.942 L 362.500 132.500 365.723 131.159 C 367.495 130.421,374.438 127.548,381.152 124.774 C 387.866 122.000,393.359 119.642,393.359 119.533 C 393.359 119.424,367.878 93.854,336.734 62.710 L 280.108 6.085 279.183 8.219 M156.933 122.363 L 200.000 165.428 243.164 122.266 L 286.328 79.103 303.613 96.387 L 320.897 113.672 277.734 156.836 L 234.572 200.000 277.734 243.164 L 320.897 286.328 303.613 303.613 L 286.328 320.897 243.164 277.734 L 200.000 234.572 156.836 277.734 L 113.672 320.897 96.387 303.613 L 79.103 286.328 122.266 243.164 L 165.428 200.000 122.266 156.836 L 79.104 113.673 96.289 96.485 C 105.740 87.031,113.562 79.297,113.670 79.297 C 113.778 79.297,133.246 98.676,156.933 122.363 " stroke="none" fill="#c30404" fill-rule="evenodd"></path><path id="path4" d="M62.990 62.990 L 6.250 119.730 6.250 199.884 L 6.250 280.037 11.426 277.889 C 14.272 276.707,21.304 273.791,27.051 271.409 L 37.500 267.077 37.500 199.847 L 37.500 132.616 85.059 85.058 L 132.618 37.500 199.834 37.500 L 267.050 37.500 269.830 30.762 C 271.359 27.056,274.271 20.024,276.302 15.137 L 279.994 6.250 199.862 6.250 L 119.730 6.250 62.990 62.990 M96.287 96.582 L 79.102 113.867 96.387 96.681 C 105.894 87.229,113.672 79.451,113.672 79.396 C 113.672 79.121,112.261 80.516,96.287 96.582 M303.320 96.484 C 312.772 105.938,320.592 113.672,320.700 113.672 C 320.807 113.672,313.162 105.938,303.711 96.484 C 294.260 87.031,286.439 79.297,286.331 79.297 C 286.224 79.297,293.869 87.031,303.320 96.484 M96.289 303.516 C 105.740 312.969,113.561 320.703,113.669 320.703 C 113.776 320.703,106.131 312.969,96.680 303.516 C 87.228 294.063,79.408 286.328,79.300 286.328 C 79.193 286.328,86.838 294.063,96.289 303.516 M303.319 303.613 L 286.133 320.898 303.418 303.713 C 319.484 287.739,320.879 286.328,320.604 286.328 C 320.549 286.328,312.771 294.106,303.319 303.613 " stroke="none" fill="#cc1c1c" fill-rule="evenodd"></path></g></svg>